SplineFontDB: 3.0
FontName: FifthLegWide
FullName: FifthLeg Wide
FamilyName: FifthLeg
Weight: Bold
Copyright: Designed by Jakub Steiner <jimmac@gmail.com> with FontForge 2.0\n\nhttp://jimmac.musichall.cz\n
UComments: "2008-8-26: Created." 
Version: 0.1
ItalicAngle: 0
UnderlinePosition: -100
UnderlineWidth: 50
Ascent: 800
Descent: 200
LayerCount: 2
Layer: 0 0 "Back" 
Layer: 1 0 "Fore" 
XUID: [1021 505 18653696 15144853]
FSType: 8
OS2Version: 0
OS2_WeightWidthSlopeOnly: 0
OS2_UseTypoMetrics: 1
CreationTime: 1219742876
ModificationTime: 1240408193
PfmFamily: 17
TTFWeight: 500
TTFWidth: 5
LineGap: 90
VLineGap: 0
OS2TypoAscent: 0
OS2TypoAOffset: 1
OS2TypoDescent: 0
OS2TypoDOffset: 1
OS2TypoLinegap: 90
OS2WinAscent: 0
OS2WinAOffset: 1
OS2WinDescent: 0
OS2WinDOffset: 1
HheadAscent: 0
HheadAOffset: 1
HheadDescent: 0
HheadDOffset: 1
OS2Vendor: 'PfEd'
Lookup: 258 0 0 "kern"  {"kern-1"  } []
DEI: 0

StartChar: b
Encoding: 98 98 0
Width: 663
VWidth: 0
Flags: W
HStem: -5.06445 148.064<337.188 441.724> 403 148.1<342.469 441.955>
VStem: 78 143<0 52 156 403 487.5 722.579> 442 143.04<143.005 156.65 156.65 403>
LayerCount: 2
Fore
SplineSet
221 793 m 1
 221 487.5 l 1
 390 546 l 6
 402.191 549.482 414.615 551.1 426.994 551.1 c 4
 507.009 551.1 585.04 483.54 585.04 415.919 c 6
 585.04 130 l 6
 585.04 63.04 506.848 -5.06445 426.746 -5.06445 c 4
 414.45 -5.06445 402.109 -3.45898 390 0 c 6
 221 52 l 1
 221 0 l 1
 78 0 l 1
 78 637 l 2
 78 741 149.5 793 221 793 c 1
234 403 m 2
 227.5 403 221 396.5 221 390 c 2
 221 156 l 2
 221.317 149.962 226.92 142.989 233.55 142.989 c 0
 233.699 142.989 233.85 143 234 143 c 2
 429 143 l 6
 435.5 143 442 149.5 442 156.65 c 6
 442 390 l 6
 442 396.5 435.5 403 429 403 c 6
 234 403 l 2
EndSplineSet
Validated: 1
EndChar

StartChar: h
Encoding: 104 104 1
Width: 613
VWidth: 0
Flags: W
HStem: -0.0410156 21G<78 221 416 559.04> 403 148.777<326.016 412.773>
VStem: 78 143<0 403 487.5 722.579> 416 143.04<-0.0410156 403>
LayerCount: 2
Fore
SplineSet
221 793 m 1
 221 487.5 l 1
 364 546 l 2
 374.795 549.926 386.777 551.777 399.339 551.777 c 0
 469.979 551.777 559.007 493.247 559.04 415.919 c 2
 559.04 -0.0410156 l 1
 416 -0.0410156 l 1
 416 390 l 2
 416 396.5 409.5 403 403 403 c 2
 234 403 l 2
 227.5 403 221 396.5 221 390 c 2
 221 0 l 1
 78 0 l 1
 78 637 l 2
 78 741 149.5 793 221 793 c 1
EndSplineSet
Validated: 1
EndChar

StartChar: m
Encoding: 109 109 2
Width: 873
VWidth: 0
Flags: W
HStem: 0 21G<78 221 376.96 520 675.96 819> 403.081 148.606<297.781 376.955 595.608 675.955>
VStem: 78 143<0 403.081 499.362 546> 376.96 143.04<0 403.081> 675.96 143.04<0 403.081>
LayerCount: 2
Fore
SplineSet
380.169 551.688 m 0
 380.469 551.688 l 0
 431.804 551.688 473.542 526.944 497.575 490.669 c 1
 637 546.285 l 2
 651.734 549.969 665.947 551.688 679.489 551.688 c 0
 761.536 551.688 819 488.528 819 416 c 2
 819 0 l 1
 675.96 0 l 1
 675.96 390.081 l 2
 675.96 396.581 669.46 403.081 662.96 403.081 c 2
 533 403.081 l 2
 526.221 402.851 520 396.336 520 389.902 c 2
 520 0 l 1
 376.96 0 l 1
 376.96 390.081 l 2
 376.96 396.581 370.46 403.081 363.96 403.081 c 2
 234 403.081 l 2
 227.581 403 221.081 396.419 221 389.919 c 2
 221 389.919 221 129.967 221 0 c 1
 78 0 l 1
 78 546 l 1
 221 546 l 1
 221 499.362 l 1
 338 546.285 l 2
 352.625 549.94 366.717 551.661 380.169 551.688 c 0
EndSplineSet
Validated: 1
EndChar

StartChar: a
Encoding: 97 97 3
Width: 572
VWidth: 0
Flags: W
HStem: -7.19922 147.114<168.9 256.89> 218.661 130.017<168.9 280.924> 403 143<156.349 387.191>
VStem: 25.9004 143<139.915 218.661> 389.9 143<0 48.9531 139.915 218.661 305.419 400.291>
LayerCount: 2
Fore
SplineSet
207.9 546 m 2
 324.9 546 l 2
 454.9 546 532.9 468 532.9 338 c 2
 532.9 0 l 1
 389.9 0 l 1
 389.9 48.9531 l 1
 200.729 0.0175781 l 2
 181.481 -4.89648 163.959 -7.19922 148.096 -7.19922 c 0
 63.2559 -7.19922 25.9004 58.665 25.9004 143 c 2
 25.9004 236.6 l 2
 25.9004 311.317 69.9463 348.678 145.367 348.678 c 0
 162.479 348.678 181.206 346.754 201.4 342.907 c 2
 389.9 305.419 l 1
 389.9 390 l 2
 389.737 396.5 383.237 402.838 376.9 403 c 2
 116.9 403 l 1
 116.9 403 116.891 403.464 116.891 404.34 c 0
 116.891 418.831 119.411 546 207.9 546 c 2
168.9 205.661 m 2
 168.9 153.24 l 2
 168.9 146.732 175.716 139.915 181.9 139.915 c 2
 389.9 139.915 l 1
 389.9 218.661 l 1
 182.225 218.661 l 2
 175.067 218.661 168.9 212.819 168.9 205.661 c 2
EndSplineSet
Validated: 1
EndChar

StartChar: u
Encoding: 117 117 4
Width: 663
VWidth: 0
Flags: W
HStem: -2.00781 145.07<221 341.769>
VStem: 78 143<143.062 546> 442 143<0 41.0723 143.062 156 156 546>
LayerCount: 2
Fore
SplineSet
78 546 m 1
 221 546 l 1
 221 156.104 l 2
 221 149.604 227.54 143.062 234.04 143.062 c 2
 429 143.062 l 2
 435.665 143.062 441.886 149.681 442 156 c 2
 442 546 l 1
 585 546 l 1
 585 0 l 1
 442 0 l 1
 442 41.0723 l 1
 273.189 5.51465 l 2
 246.991 0.4375 223.87 -2.00781 203.573 -2.00781 c 0
 112.104 -2.00781 78 47.665 78 130 c 2
 78 546 l 1
EndSplineSet
Validated: 1
EndChar

StartChar: r
Encoding: 114 114 6
Width: 554
VWidth: 0
Flags: W
HStem: 0 21G<78 221> 403 145.65<293.901 476.317>
VStem: 78 143<0 403 505.7 546>
LayerCount: 2
Fore
SplineSet
221 546 m 1
 221 505.7 l 1
 347.1 542.1 l 2
 362.194 546.572 377.53 548.65 392.695 548.65 c 0
 478.62 548.65 559.063 481.892 559.063 405.218 c 0
 559.063 404.479 559.056 403.739 559.04 403 c 1
 234 403 l 2
 227.5 403 221 396.5 221 390 c 2
 221 0 l 1
 78 0 l 1
 78 546 l 1
 221 546 l 1
EndSplineSet
Validated: 1
EndChar

StartChar: g
Encoding: 103 103 7
Width: 656
VWidth: 0
Flags: W
HStem: -241.199 143<201.449 431.326> -4.87793 147.878<214 326.023> 401.771 144.228<214 301.989>
VStem: 71 143<143 399.74> 435 143<-96.7068 38.3818 143 401.771 489.848 546>
LayerCount: 2
Fore
SplineSet
253 -241.199 m 2
 164.512 -241.199 161.991 -114.033 161.991 -99.54 c 0
 161.991 -98.6641 162 -98.1992 162 -98.1992 c 1
 422 -98.1992 l 2
 428.338 -98.0371 434.838 -91.6992 435 -85.1992 c 2
 435 38.3818 l 1
 246.5 0.892578 l 2
 226.306 -2.9541 207.579 -4.87793 190.468 -4.87793 c 0
 115.046 -4.87793 71 32.4834 71 107.2 c 2
 71 395.801 l 2
 71 480.136 108.354 545.999 193.196 545.999 c 0
 209.059 545.999 226.58 543.696 245.829 538.782 c 2
 435 489.848 l 1
 435 546 l 1
 578 546 l 1
 578 -87.7998 l 2
 578 -184.034 515.638 -241.199 427.2 -241.199 c 2
 253 -241.199 l 2
214 156 m 2
 214 148.842 220.167 143 227.325 143 c 2
 435 143 l 1
 435 401.771 l 1
 227 401.771 l 2
 220.815 401.771 214 394.956 214 388.446 c 2
 214 156 l 2
EndSplineSet
Validated: 1
EndChar

StartChar: o
Encoding: 111 111 8
Width: 631
VWidth: 0
Flags: W
HStem: -9.09961 143<184.468 454.532> 404.3 141.7<184.468 454.532>
VStem: 40 143.081<135.367 402.8> 455.919 143.081<135.367 402.8>
LayerCount: 2
Fore
SplineSet
210.503 546 m 2
 428.497 546 l 2
 522.964 546 599 471.265 599 376.797 c 2
 599 161.402 l 2
 599 66.9365 522.964 -9.09961 428.497 -9.09961 c 2
 210.503 -9.09961 l 2
 116.036 -9.09961 40 66.9365 40 161.402 c 2
 40 376.797 l 2
 40 471.265 116.036 546 210.503 546 c 2
196 404.3 m 2
 188.85 404.3 183.081 398.53 183.081 391.381 c 2
 183.081 146.819 l 2
 183.081 139.669 188.85 133.9 196 133.9 c 2
 443 133.9 l 2
 450.15 133.9 455.919 139.669 455.919 146.819 c 2
 455.919 391.381 l 2
 455.919 398.53 450.15 404.3 443 404.3 c 2
 196 404.3 l 2
EndSplineSet
Validated: 1
EndChar

StartChar: d
Encoding: 100 100 9
Width: 637
VWidth: 0
Flags: W
HStem: -5.06445 148.064<221.317 325.853> 403 148.1<221.087 320.389>
VStem: 78 143.04<143.005 403> 442.04 143<0 52 142.994 156 156 403 487.5 726.683>
LayerCount: 2
Fore
SplineSet
585.04 793 m 1
 585.04 0 l 1
 442.04 0 l 1
 442.04 52 l 1
 273.04 0 l 6
 260.931 -3.45898 248.59 -5.06445 236.295 -5.06445 c 4
 156.192 -5.06445 78 63.04 78 130 c 6
 78 415.919 l 6
 78 483.54 156.032 551.1 236.048 551.1 c 4
 248.425 551.1 260.851 549.482 273.04 546 c 6
 441.391 487.5 l 1
 441.391 637 l 2
 441.391 742.952 507.69 793 585.04 793 c 1
429.04 403 m 2
 234.04 403 l 6
 227.54 403 221.04 396.5 221.04 390 c 6
 221.04 156.65 l 6
 221.04 149.5 227.54 143 234.04 143 c 6
 429.04 143 l 2
 429.191 143 429.341 142.989 429.49 142.989 c 0
 436.12 142.989 441.723 149.962 442.04 156 c 2
 442.04 390 l 2
 442.04 396.5 435.54 403 429.04 403 c 2
EndSplineSet
Validated: 1
EndChar

StartChar: s
Encoding: 115 115 10
Width: 589
VWidth: 0
Flags: W
HStem: -1.27246 132.6<90.5813 411.197> 216.812 112.094<191 414.6> 412.129 132.6<191.004 511.237>
VStem: 48 143<332.025 349.599 349.599 412.129> 414.6 143<133.311 144.284 144.284 214.85>
LayerCount: 2
Fore
SplineSet
48 427.729 m 2
 49.5645 490.304 100.266 544.729 191 544.729 c 2
 446.6 544.729 l 2
 509.652 543.622 550.6 502.836 550.6 412.129 c 1
 204 412.129 l 2
 196.632 412.129 191 405.925 191 399.03 c 2
 191 341.435 l 2
 191 335.646 197.159 328.906 203.393 328.906 c 0
 203.596 328.906 203.799 328.913 204 328.928 c 2
 414.6 328.928 l 2
 491.027 328.928 557.6 285.84 557.6 207.62 c 2
 557.6 141.728 l 2
 557.6 50.7275 505.6 -1.27246 401.6 -1.27246 c 2
 149 -1.27246 l 6
 81.585 -1.27246 58 53.291 58 131.327 c 5
 401.6 131.327 l 2
 408.495 131.327 414.6 137.391 414.6 144.284 c 2
 414.6 205.4 l 2
 414.6 211.604 408.035 216.812 401.6 216.812 c 2
 191 216.812 l 2
 111.155 216.812 48 272.942 48 349.599 c 2
 48 427.729 l 2
EndSplineSet
Validated: 1
EndChar

StartChar: e
Encoding: 101 101 11
Width: 619
VWidth: 0
Flags: W
HStem: -10.4004 143<193.352 470.662> 224.94 98.7598<191.081 439.503> 410.8 135.2<192.468 438.035>
VStem: 48 143.081<133.462 171.6 171.6 224.94 323.7 409.946> 439.503 143<323.7 409.946>
LayerCount: 2
Fore
SplineSet
218.503 546 m 2
 412 546 l 2
 506.467 546 582.503 469.964 582.503 375.497 c 2
 582.503 224.94 l 1
 191.081 224.94 l 1
 191.081 159.9 l 2
 191.081 144.3 201.4 132.6 217 132.6 c 2
 375.6 132.6 l 1
 531.6 132.6 l 1
 531.6 41.5996 479.6 -10.4004 375.6 -10.4004 c 2
 217 -10.4004 l 2
 113 -10.4004 48 80.5996 48 171.6 c 2
 48 375.497 l 2
 48 469.964 124.036 546 218.503 546 c 2
217 410.8 m 2
 204 410.8 191 397.8 191 384.8 c 2
 191 323.7 l 1
 439.503 323.7 l 1
 439.503 384.8 l 2
 439.503 397.8 426.503 410.8 413.503 410.8 c 2
 217 410.8 l 2
EndSplineSet
Validated: 1
EndChar

StartChar: f
Encoding: 102 102 12
Width: 384
VWidth: 0
Flags: W
HStem: 0 21G<65.0205 208.021> 429 117<208.021 350.694> 656.5 123.5<208.739 411.756>
VStem: 65.0205 143<0 429 546 654.102>
LayerCount: 2
Fore
SplineSet
227.521 780 m 2
 429.021 780 l 1
 429.021 734.5 l 2
 429.021 669.5 389.563 656.5 344.521 656.5 c 2
 227.521 656.5 l 2
 214.521 656.5 208.021 650 208.021 637 c 2
 208.021 546 l 1
 305.521 546 l 2
 337.929 546 364.021 519.909 364.021 487.5 c 0
 364.021 455.091 337.929 429 305.521 429 c 2
 208.021 429 l 1
 208.021 0 l 1
 65.0205 0 l 1
 65.0205 637 l 2
 65.0068 637.852 65 638.701 65 639.549 c 0
 65 718.286 124.629 780 227.521 780 c 2
EndSplineSet
Validated: 1
EndChar

StartChar: t
Encoding: 116 116 13
Width: 453
VWidth: 0
Flags: W
HStem: 0 21G<133 276> 403 143<36.8961 133 276 411.104>
VStem: 133 143<0 403 546 759.104>
LayerCount: 2
Fore
SplineSet
204.5 780 m 4
 244.111 780 276 748.111 276 708.5 c 6
 276 546 l 5
 360.5 546 l 6
 400.111 546 432 514.111 432 474.5 c 6
 432 403 l 5
 276 403 l 5
 276 0 l 5
 133 0 l 5
 133 403 l 5
 87.5 403 l 6
 47.8896 403 16 434.889 16 474.5 c 4
 16 514.111 47.8896 546 87.5 546 c 6
 133 546 l 5
 133 708.5 l 6
 133 748.111 164.889 780 204.5 780 c 4
EndSplineSet
Validated: 1
EndChar

StartChar: i
Encoding: 105 105 14
Width: 282
VWidth: 0
Flags: W
HStem: 0 21G<85.6113 228.61> 625.3 144.3<106.113 207.513>
VStem: 85.1504 144.3<0 525.104 645.45 748.312>
LayerCount: 2
Fore
SplineSet
157.11 546 m 0
 196.722 546 228.61 514.111 228.61 474.5 c 2
 228.61 0 l 1
 85.6113 0 l 1
 85.6113 474.5 l 2
 85.6113 514.111 117.5 546 157.11 546 c 0
229.45 696.8 m 4
 229.45 655.2 195.65 625.3 155.35 625.3 c 4
 117.65 625.3 85.1504 655.2 85.1504 696.8 c 4
 85.1504 737.1 117.65 769.6 155.35 769.6 c 4
 195.65 769.6 229.45 737.1 229.45 696.8 c 4
EndSplineSet
Validated: 1
EndChar

StartChar: v
Encoding: 118 118 15
Width: 536
VWidth: 0
Flags: W
HStem: 0 21G<227.403 339.704>
LayerCount: 2
Fore
SplineSet
98.7002 543.522 m 0
 125.295 543.112 150.506 527.771 162.44 501.922 c 2
 266.919 277.902 l 2
 279.823 242.54 283.705 207.715 283.705 207.715 c 1
 283.705 207.715 287.821 242.699 302.121 278.449 c 2
 405.297 501.922 l 2
 417.396 528.132 443.143 543.535 470.139 543.535 c 0
 480.184 543.535 490.403 541.403 500.155 536.9 c 0
 526.366 524.8 541.77 499.032 541.77 472.024 c 0
 541.77 461.975 539.637 451.753 535.135 442 c 2
 330.441 0 l 1
 236.634 0 l 1
 32.6436 442 l 2
 28.1357 451.763 26.001 461.995 26.001 472.056 c 0
 26.001 499.052 41.3809 524.805 67.5811 536.9 c 0
 77.3398 541.406 87.5498 543.53 97.6025 543.53 c 0
 97.9688 543.53 98.334 543.527 98.7002 543.522 c 0
EndSplineSet
Validated: 1
EndChar

StartChar: q
Encoding: 113 113 17
Width: 663
VWidth: 0
Flags: W
HStem: -4.87793 147.878<221 333.023> 401.771 144.229<221 308.989>
VStem: 78 143<143 399.74> 442 143<-241.228 38.3818 143 401.771 489.848 546>
LayerCount: 2
Fore
SplineSet
442 -241.228 m 1
 442 38.3818 l 1
 253.5 0.892578 l 6
 233.306 -2.9541 214.579 -4.87793 197.468 -4.87793 c 4
 122.046 -4.87793 78 32.4834 78 107.2 c 6
 78 395.801 l 6
 78 480.136 115.356 546 200.196 546 c 4
 216.059 546 233.581 543.697 252.829 538.782 c 6
 442 489.848 l 1
 442 546 l 1
 585 546 l 1
 585 -241.228 l 1
 442 -241.228 l 1
221 156 m 6
 221 148.842 227.167 143 234.325 143 c 6
 442 143 l 1
 442 401.771 l 1
 234 401.771 l 6
 227.815 401.771 221 394.956 221 388.446 c 6
 221 156 l 6
EndSplineSet
Validated: 1
EndChar

StartChar: p
Encoding: 112 112 18
Width: 663
VWidth: 0
Flags: W
HStem: -4.87793 147.878<329.977 442> 401.771 144.229<354.011 442>
VStem: 78 143<-241.228 38.3818 143 401.771 489.848 546> 442 143<143 156 156 399.74>
LayerCount: 2
Fore
SplineSet
221 -241.228 m 1
 78 -241.228 l 1
 78 546 l 1
 221 546 l 1
 221 489.848 l 1
 410.171 538.782 l 6
 429.419 543.697 446.941 546 462.804 546 c 4
 547.645 546 585 480.136 585 395.801 c 6
 585 107.2 l 6
 585 32.4834 540.953 -4.87793 465.532 -4.87793 c 4
 448.421 -4.87793 429.694 -2.9541 409.5 0.892578 c 6
 221 38.3818 l 1
 221 -241.228 l 1
442 156 m 6
 442 388.446 l 6
 442 394.956 435.184 401.771 429 401.771 c 6
 221 401.771 l 1
 221 143 l 1
 428.675 143 l 6
 435.833 143 442 148.842 442 156 c 6
EndSplineSet
Validated: 1
EndChar

StartChar: l
Encoding: 108 108 19
Width: 299
VWidth: 0
Flags: W
HStem: 0 78<221 255.731>
VStem: 78 143<78 759.104>
LayerCount: 2
Fore
SplineSet
149.5 780 m 0
 189.111 780 221 748.111 221 708.5 c 2
 221 78 l 1
 242.528 78 260 60.5273 260 39 c 2
 260 0 l 1
 199.333 0 138.667 0 78 0 c 1
 78 708.5 l 2
 78 748.111 109.89 780 149.5 780 c 0
EndSplineSet
Validated: 1
EndChar

StartChar: k
Encoding: 107 107 20
Width: 621
VWidth: 0
Flags: W
HStem: 0 21G<78 221 509.913 528.214>
VStem: 78 143<0 259.838 423.272 722.579>
LayerCount: 2
Fore
SplineSet
221 793 m 1
 221 423.272 l 1
 472.794 568.83 l 2
 484.093 575.32 496.386 578.409 508.5 578.409 c 0
 533.213 578.409 557.176 565.556 570.415 542.506 c 0
 576.898 531.219 579.983 518.933 579.983 506.824 c 0
 579.983 482.088 567.11 458.089 544.05 444.845 c 2
 376.065 348.645 l 1
 621.035 54.4375 l 1
 565.662 9.38477 l 2
 552.301 -1.60645 536.207 -6.96387 520.221 -6.96387 c 0
 499.604 -6.96387 479.167 1.94531 464.994 19.1748 c 2
 252.322 277.753 l 1
 221 259.838 l 1
 221 0 l 1
 78 0 l 1
 78 637 l 2
 78 741 149.5 793 221 793 c 1
EndSplineSet
Validated: 1
EndChar

StartChar: j
Encoding: 106 106 21
Width: 310
VWidth: 0
Flags: W
HStem: 625.3 144.3<104.812 206.213>
VStem: 83.8496 144.301<-98.9873 -39 -39 523.878 645.45 748.312>
LayerCount: 2
Fore
SplineSet
155.012 546 m 4
 194.623 546 226.512 514.111 226.512 474.5 c 6
 226.512 -39 l 6
 226.512 -67.666 219.943 -91.5928 197.843 -113.043 c 6
 76.126 -224.682 l 6
 60.4209 -243.351 41.415 -250.972 24.0781 -250.972 c 4
 -2.99609 -250.972 -26 -232.383 -26 -208.264 c 4
 -26 -199.919 -23.2461 -190.913 -16.957 -181.785 c 5
 65.499 -96.3164 l 5
 79.9131 -74.6963 83.832 -66.2939 83.832 -44.6318 c 4
 83.832 -42.8496 83.8057 -40.9766 83.7559 -39 c 5
 83.5127 -39 l 5
 83.5127 474.5 l 6
 83.5127 514.111 115.401 546 155.012 546 c 4
228.15 696.8 m 4
 228.15 655.2 194.35 625.3 154.05 625.3 c 4
 116.35 625.3 83.8496 655.2 83.8496 696.8 c 4
 83.8496 737.1 116.35 769.6 154.05 769.6 c 4
 194.35 769.6 228.15 737.1 228.15 696.8 c 4
EndSplineSet
Validated: 1
EndChar

StartChar: comma
Encoding: 44 44 22
Width: 314
VWidth: 0
Flags: W
HStem: -171.743 315.312<135.718 153.702>
VStem: 78 159.636<13.6819 116.405> 135.11 102.525<-61.0529 -9.70898>
LayerCount: 2
Fore
SplineSet
159.066 143.569 m 0xa0
 202.43 143.569 237.636 108.362 237.636 65 c 2xc0
 237.636 10.4824 l 2xa0
 237.636 -16.1709 229.526 -40.291 219.111 -56.6719 c 2
 151.592 -152.79 l 2
 140.27 -166.249 126.571 -171.743 114.078 -171.743 c 0
 94.5703 -171.743 78 -158.349 78 -140.967 c 0xc0
 78 -134.95 79.9854 -128.457 84.5205 -121.875 c 2
 128.314 -37.2529 l 1
 133.657 -30.1064 135.11 -23.751 135.11 -16.9492 c 0
 135.11 -14.6064 134.938 -12.209 134.691 -9.70898 c 1
 103.254 0.555664 80.5391 30.1426 80.5391 65 c 0
 80.5391 108.362 115.705 143.569 159.066 143.569 c 0xa0
EndSplineSet
Validated: 1
EndChar

StartChar: y
Encoding: 121 121 23
Width: 591
VWidth: 0
Flags: W
LayerCount: 2
Fore
SplineSet
110.733 545.35 m 0
 137.332 545.302 162.759 530.327 175.042 504.645 c 2
 297.202 249.234 l 1
 419.361 504.645 l 2
 431.662 530.365 457.14 545.34 483.776 545.34 c 0
 494.148 545.34 504.696 543.069 514.71 538.28 c 0
 540.43 525.98 555.405 500.503 555.405 473.865 c 0
 555.405 463.494 553.136 452.948 548.348 442.935 c 2
 236.955 -208.162 l 2
 224.655 -233.883 199.177 -248.859 172.54 -248.859 c 0
 162.169 -248.859 151.623 -246.589 141.609 -241.8 c 2
 76.4131 -208.663 l 1
 224.28 96.7285 l 1
 212.962 103.692 203.408 113.86 197.225 126.791 c 2
 46.0586 442.935 l 2
 41.2695 452.948 39 463.494 39 473.865 c 0
 39 500.503 53.9756 525.98 79.6963 538.28 c 0
 89.7051 543.067 100.237 545.35 110.602 545.35 c 0
 110.733 545.35 l 0
EndSplineSet
Validated: 1
EndChar

StartChar: c
Encoding: 99 99 24
Width: 587
VWidth: 0
Flags: W
HStem: -9.09961 141.497<222.653 502.984> 403 141.497<222.653 502.984>
VStem: 78 143.081<133.902 159.9 159.9 401.495>
LayerCount: 2
Fore
SplineSet
253.5 544.497 m 2
 442.081 544.497 l 2
 551.28 544.497 556.4 403 556.4 403 c 1
 234 403 l 2
 226.85 403 221.081 397.23 221.081 390.081 c 2
 221.081 145.315 l 2
 221.081 138.165 226.85 132.397 234 132.397 c 2
 556.4 132.397 l 1
 556.4 132.397 551.28 -9.09961 442.081 -9.09961 c 2
 253.5 -9.09961 l 2
 138.738 -9.09961 78 65.4326 78 159.9 c 2
 78 375.497 l 2
 78 469.964 138.738 544.497 253.5 544.497 c 2
EndSplineSet
Validated: 1
EndChar

StartChar: w
Encoding: 119 119 25
Width: 874
VWidth: 0
Flags: W
HStem: 0 21G<227.392 339.687 535.166 647.463>
LayerCount: 2
Fore
SplineSet
98.7002 543.522 m 0
 125.294 543.112 150.506 527.771 162.44 501.922 c 2
 266.928 277.915 l 2
 279.833 242.554 283.705 207.715 283.705 207.715 c 1
 283.705 207.715 287.81 242.694 302.109 278.444 c 2
 344.746 370.336 l 2
 353.521 388.536 370.5 403 396.5 403 c 2
 481 403 l 2
 502.45 403 522.43 386.994 532.18 367.819 c 2
 574.662 277.915 l 2
 587.567 242.554 591.48 207.715 591.48 207.715 c 1
 591.48 207.715 595.585 242.694 609.885 278.444 c 2
 713.072 501.922 l 2
 725.171 528.132 750.916 543.535 777.912 543.535 c 0
 787.959 543.535 798.178 541.403 807.931 536.9 c 0
 834.141 524.8 849.543 499.032 849.543 472.024 c 0
 849.543 461.975 847.411 451.753 842.909 442 c 2
 638.2 0 l 1
 544.397 0 l 1
 437.593 231.4 l 1
 330.425 0 l 1
 236.622 0 l 1
 32.6436 442 l 2
 28.1357 451.763 26 461.996 26 472.056 c 0
 26 499.053 41.3799 524.805 67.5811 536.9 c 0
 77.3398 541.406 87.5488 543.53 97.6025 543.53 c 0
 97.9688 543.53 98.334 543.527 98.7002 543.522 c 0
EndSplineSet
Validated: 1
EndChar

StartChar: z
Encoding: 122 122 26
Width: 598
VWidth: 0
Flags: W
HStem: -6.5 143<258.308 513.899> 403 143<114.424 340.705>
LayerCount: 2
Fore
SplineSet
196.72 546 m 2
 500.515 546 l 2
 533.015 546 552.515 520 552.515 494 c 2
 552.515 429 l 2
 552.522 428.711 552.526 428.424 552.526 428.138 c 0
 552.526 404.59 526.3 389.744 508.72 368.672 c 2
 258.308 136.5 l 1
 552.515 136.5 l 1
 552.515 97.5 552.515 -6.5 448.515 -6.5 c 2
 100.271 -6.5 l 2
 84.0215 -6.5 45.5137 19.5 45.5137 45.5 c 2
 45.5137 110.5 l 2
 45.5049 110.84 45.5 111.179 45.5 111.517 c 0
 45.5 135.044 67.6758 152.271 89.3076 172.666 c 2
 340.705 403 l 1
 66.7197 403 l 1
 66.7197 465.535 79.0439 546 196.72 546 c 2
EndSplineSet
Validated: 1
EndChar

StartChar: x
Encoding: 120 120 27
Width: 586
VWidth: 0
Flags: W
HStem: -6.16016 21G<89.3022 107.59 452.524 470.812>
LayerCount: 2
Fore
SplineSet
95.7617 557.578 m 0
 96.3623 557.594 96.9619 557.602 97.5625 557.602 c 0
 117.535 557.602 137.405 549.257 151.581 532.919 c 2
 280.037 384.84 l 1
 408.534 532.919 l 2
 422.712 549.259 442.568 557.627 462.545 557.627 c 0
 479.145 557.627 495.828 551.85 509.406 540.069 c 0
 525.747 525.891 534.114 506.034 534.114 486.057 c 0
 534.114 469.457 528.337 452.774 516.557 439.197 c 2
 374.734 275.723 l 1
 560.589 60.0107 l 1
 509.406 11.416 l 2
 495.817 -0.375 479.119 -6.16016 462.506 -6.16016 c 0
 442.542 -6.16016 422.703 2.19531 408.534 18.5254 c 2
 280.037 166.603 l 1
 151.581 18.5254 l 2
 137.411 2.19531 117.572 -6.16016 97.6084 -6.16016 c 0
 80.9961 -6.16016 64.2979 -0.375 50.709 11.416 c 0
 34.3682 25.5938 26 45.4375 26 65.4043 c 0
 26 81.9941 31.7773 98.6689 43.5586 112.247 c 2
 185.381 275.723 l 1
 43.5586 439.197 l 2
 31.7773 452.774 26 469.457 26 486.057 c 0
 26 506.034 34.3682 525.891 50.709 540.069 c 0
 63.7979 551.426 79.7598 557.176 95.7617 557.578 c 0
EndSplineSet
Validated: 1
EndChar

StartChar: exclam
Encoding: 33 33 28
Width: 352
VWidth: 0
Flags: W
HStem: -1.24316 145.543<125.322 228.222>
VStem: 104 145.544<20.0789 122.978 221 757.618>
LayerCount: 2
Fore
SplineSet
249.544 71.5283 m 0
 249.544 31.3584 216.941 -1.24316 176.772 -1.24316 c 0
 136.602 -1.24316 104 31.3584 104 71.5283 c 0
 104 111.698 136.602 144.3 176.772 144.3 c 0
 216.941 144.3 249.544 111.698 249.544 71.5283 c 0
176.8 780 m 0
 216.411 780 248.3 747.736 248.3 707.66 c 2
 248.3 221 l 1
 105.3 221 l 1
 105.3 707.66 l 2
 105.3 747.736 137.189 780 176.8 780 c 0
EndSplineSet
Validated: 1
EndChar

StartChar: question
Encoding: 63 63 29
Width: 594
VWidth: 0
Flags: W
HStem: 0 144.3<175.338 277.713> 327.6 139.101<297.7 385.663> 624 158.6<246.102 385.663>
VStem: 154.7 144.3<20.1501 123.012 221 327.6 327.6 327.6> 388.7 141.7<469.534 623.517>
LayerCount: 2
Fore
SplineSet
299 71.5 m 0
 299 29.9004 266.5 0 226.2 0 c 0
 185.9 0 154.7 29.9004 154.7 71.5 c 0
 154.7 111.8 185.9 144.3 226.2 144.3 c 0
 266.5 144.3 299 111.8 299 71.5 c 0
354.9 782.6 m 0
 469.3 782.6 530.4 692.9 530.4 596.7 c 2
 530.4 495.3 l 2
 530.4 401.7 469.3 327.6 354.9 327.6 c 2
 354.9 327.6 299 327.6 297.7 327.6 c 1
 297.7 221 l 1
 154.7 221 l 1
 154.7 327.6 l 2
 154.7 413.4 234 466.7 299 466.7 c 2
 373.1 466.7 l 2
 383.5 466.7 388.7 474.5 388.7 479.7 c 2
 388.7 612.3 l 2
 388.7 620.1 380.9 624 375.7 624 c 2
 53.2998 624 l 1
 53.2998 687.7 l 0
 52.6499 689 52.325 690.3 52.325 691.56 c 0
 52.325 695.338 55.2497 698.75 61.0996 700.7 c 2
 61.0996 700.7 276.9 782.6 354.9 782.6 c 0
EndSplineSet
Validated: 1
EndChar

StartChar: period
Encoding: 46 46 30
Width: 299
VWidth: 0
Flags: W
HStem: 0 144.3<100.262 201.662>
VStem: 79.2998 144.3<20.1501 123.012>
LayerCount: 2
Fore
SplineSet
223.6 71.5 m 4
 223.6 29.9004 189.8 0 149.5 0 c 4
 111.8 0 79.2998 29.9004 79.2998 71.5 c 4
 79.2998 111.8 111.8 144.3 149.5 144.3 c 4
 189.8 144.3 223.6 111.8 223.6 71.5 c 4
EndSplineSet
Validated: 1
EndChar

StartChar: colon
Encoding: 58 58 31
Width: 300
VWidth: 0
Flags: W
HStem: -1.24316 145.543<99.3221 202.222> 401.756 145.544<99.3221 202.222>
VStem: 78 145.544<20.0789 122.978 423.078 525.978>
LayerCount: 2
Fore
SplineSet
223.544 474.527 m 0
 223.544 434.358 190.941 401.756 150.772 401.756 c 0
 110.602 401.756 78 434.358 78 474.527 c 0
 78 514.698 110.602 547.3 150.772 547.3 c 0
 190.941 547.3 223.544 514.698 223.544 474.527 c 0
223.544 71.5283 m 0
 223.544 31.3584 190.941 -1.24316 150.772 -1.24316 c 0
 110.602 -1.24316 78 31.3584 78 71.5283 c 0
 78 111.698 110.602 144.3 150.772 144.3 c 0
 190.941 144.3 223.544 111.698 223.544 71.5283 c 0
EndSplineSet
Validated: 1
EndChar

StartChar: semicolon
Encoding: 59 59 32
Width: 314
VWidth: 0
Flags: W
HStem: 401.756 145.544<101.658 204.557>
VStem: 78 159.636<13.6819 116.405> 80.3359 145.544<423.078 525.978> 135.11 102.525<-61.0529 -9.70898>
LayerCount: 2
Fore
SplineSet
159.066 143.569 m 0x90
 202.43 143.569 237.636 108.362 237.636 65 c 2xc0
 237.636 10.4824 l 2x90
 237.636 -16.1709 229.526 -40.291 219.111 -56.6719 c 2
 151.592 -152.79 l 2
 140.27 -166.249 126.571 -171.743 114.078 -171.743 c 0
 94.5703 -171.743 78 -158.349 78 -140.967 c 0xc0
 78 -134.95 79.9854 -128.457 84.5205 -121.875 c 2
 128.314 -37.2529 l 1
 133.657 -30.1064 135.11 -23.751 135.11 -16.9492 c 0
 135.11 -14.6064 134.938 -12.209 134.691 -9.70898 c 1
 103.254 0.555664 80.5391 30.1426 80.5391 65 c 0
 80.5391 108.362 115.705 143.569 159.066 143.569 c 0x90
225.88 474.527 m 0xa0
 225.88 434.358 193.277 401.756 153.107 401.756 c 0
 112.938 401.756 80.3359 434.358 80.3359 474.527 c 0
 80.3359 514.698 112.938 547.3 153.107 547.3 c 0
 193.277 547.3 225.88 514.698 225.88 474.527 c 0xa0
EndSplineSet
Validated: 1
EndChar

StartChar: quotesingle
Encoding: 39 39 33
Width: 300
VWidth: 0
Flags: W
HStem: 442 341.9<109.033 198.169>
VStem: 78.041 145.519
LayerCount: 2
Fore
SplineSet
150.76 783.9 m 0
 190.93 783.9 223.56 751.312 223.56 711.141 c 2
 198.169 440.817 l 1
 150.76 442 l 2
 123.365 442 100.916 463.213 98.9219 490.1 c 1
 98.7998 490.1 l 1
 78.041 712.155 l 1
 78 712.4 l 1
 78.041 712.4 l 1
 78.7178 751.986 111.013 783.9 150.76 783.9 c 0
EndSplineSet
Validated: 1
EndChar

StartChar: quotedbl
Encoding: 34 34 34
Width: 531
VWidth: 0
Flags: W
LayerCount: 2
Fore
SplineSet
381.776 783.9 m 0
 421.946 783.9 454.576 751.312 454.576 711.141 c 2
 429.188 440.817 l 1
 381.776 442 l 2
 354.384 442 331.935 463.213 329.938 490.1 c 1
 329.816 490.1 l 1
 309.057 712.155 l 1
 309.017 712.4 l 1
 309.057 712.4 l 1
 309.734 751.986 342.03 783.9 381.776 783.9 c 0
150.76 783.9 m 0
 190.929 783.9 223.56 751.312 223.56 711.141 c 2
 198.169 440.817 l 1
 150.76 442 l 2
 123.365 442 100.916 463.213 98.9219 490.1 c 1
 98.7998 490.1 l 1
 78.041 712.155 l 1
 78 712.4 l 1
 78.041 712.4 l 1
 78.7178 751.986 111.012 783.9 150.76 783.9 c 0
EndSplineSet
Validated: 1
EndChar

StartChar: M
Encoding: 77 77 35
Width: 862
VWidth: 0
Flags: W
HStem: 0 21G<82.5 225.5 622 765>
VStem: 82.5 143<0 499.728> 622 143<0 499.728>
LayerCount: 2
Fore
SplineSet
154 780 m 0
 193.611 780 206 753.311 225.5 729.3 c 2
 423.75 457.397 l 1
 622 729.3 l 2
 641.5 753.311 653.889 780 693.5 780 c 0
 733.111 780 765 748.111 765 708.5 c 2
 765 0 l 1
 622 0 l 1
 622 499.728 l 1
 444.59 273.095 l 2
 439.593 266.598 431.552 263.057 423.411 263.057 c 0
 415.672 263.057 407.843 266.257 402.452 273.162 c 2
 225.5 499.728 l 1
 225.5 0 l 1
 82.5 0 l 1
 82.5 708.5 l 2
 82.5 748.111 114.39 780 154 780 c 0
EndSplineSet
Validated: 1
EndChar

StartChar: N
Encoding: 78 78 36
Width: 774
VWidth: 0
Flags: W
HStem: 0 21G<75.5 218.5 608.845 648.456>
VStem: 75.5 143<0 499.728> 557.15 143<280.272 764.237>
LayerCount: 2
Fore
SplineSet
147 780 m 0
 186.611 780 199 753.311 218.5 729.3 c 2
 557.15 280.272 l 1
 557.15 724.1 l 2
 559.75 756.6 588.35 780 627.35 780 c 2
 700.15 780 l 1
 700.15 71.5 l 2
 700.15 31.8896 668.261 0 628.65 0 c 0
 589.039 0 576.65 26.6895 557.15 50.7002 c 2
 218.5 499.728 l 1
 218.5 0 l 1
 75.5 0 l 1
 75.5 708.5 l 2
 75.5 748.111 107.39 780 147 780 c 0
EndSplineSet
Validated: 1
EndChar

StartChar: H
Encoding: 72 72 37
Width: 780
VWidth: 0
Flags: W
HStem: 0 21G<97.5 240.5 539.5 682.5> 309.928 143<240.5 539.5>
VStem: 97.5 143<0 309.928 452.928 759.104> 539.5 143<0 309.928 452.928 759.104>
LayerCount: 2
Fore
SplineSet
169 780 m 0
 208.611 780 240.5 748.111 240.5 708.5 c 2
 240.5 452.928 l 1
 539.5 452.928 l 1
 539.5 708.5 l 2
 539.5 748.111 571.389 780 611 780 c 2
 682.5 780 l 1
 682.5 0 l 1
 539.5 0 l 1
 539.5 309.928 l 1
 240.5 309.928 l 1
 240.5 0 l 1
 97.5 0 l 1
 97.5 708.5 l 2
 97.5 748.111 129.39 780 169 780 c 0
EndSplineSet
Validated: 1
EndChar

StartChar: O
Encoding: 79 79 38
Width: 717
VWidth: 0
Flags: W
HStem: 0 143<226.968 498.535> 637 143<226.968 498.535>
VStem: 82.5 143.081<144.468 635.532> 499.922 143.081<144.468 635.532>
LayerCount: 2
Fore
SplineSet
253.003 780 m 2
 472.5 780 l 2
 566.967 780 643.003 703.964 643.003 609.497 c 2
 643.003 170.503 l 2
 643.003 76.0361 566.967 0 472.5 0 c 2
 253.003 0 l 2
 158.536 0 82.5 76.0361 82.5 170.503 c 2
 82.5 609.497 l 2
 82.5 703.964 158.536 780 253.003 780 c 2
238.5 637 m 2
 231.35 637 225.581 631.23 225.581 624.08 c 2
 225.581 155.919 l 2
 225.581 148.77 231.35 143 238.5 143 c 2
 487.003 143 l 2
 494.152 143 499.922 148.77 499.922 155.919 c 2
 499.922 624.08 l 2
 499.922 631.23 494.152 637 487.003 637 c 2
 238.5 637 l 2
EndSplineSet
Validated: 1
EndChar

StartChar: P
Encoding: 80 80 39
Width: 583
VWidth: 0
Flags: W
HStem: 0 21G<65 208> 309.4 143<208 402.648> 635.771 144.229<208 402.621>
VStem: 65 143<0 309.4 452.4 635.771> 403 143<452.4 465.4 465.4 633.78>
LayerCount: 2
Fore
SplineSet
208 0 m 1
 65 0 l 1
 65 780 l 1
 390 780 l 2
 481 780 546 715 546 629.801 c 2
 546 452.4 l 2
 546 358.131 461.5 309.4 396.5 309.4 c 2
 208 309.4 l 1
 208 0 l 1
403 465.4 m 2
 403 622.446 l 2
 403 628.955 396.184 635.771 390 635.771 c 2
 208 635.771 l 1
 208 452.4 l 1
 389.675 452.4 l 2
 396.833 452.4 403 458.242 403 465.4 c 2
EndSplineSet
Validated: 1
EndChar

StartChar: C
Encoding: 67 67 40
Width: 629
VWidth: 0
Flags: W
HStem: 0 143<241.968 542.627> 637 143<241.968 529.18>
VStem: 97.5 143.081<144.468 170.503 170.503 635.532>
LayerCount: 2
Fore
SplineSet
268.003 780 m 2
 474.5 780 l 2
 543.445 778.724 578.535 703.463 578.535 640.427 c 0
 578.535 639.28 578.523 638.138 578.5 637 c 1
 253.5 637 l 2
 246.35 637 240.581 631.23 240.581 624.08 c 2
 240.581 155.919 l 2
 240.581 148.77 246.35 143 253.5 143 c 2
 591.5 143 l 1
 591.5 78 552.5 0 487.5 0 c 2
 268.003 0 l 2
 173.536 0 97.5 76.0361 97.5 170.503 c 2
 97.5 609.497 l 2
 97.5 703.964 173.536 780 268.003 780 c 2
EndSplineSet
Validated: 1
EndChar

StartChar: Q
Encoding: 81 81 41
Width: 754
VWidth: 0
Flags: W
HStem: 0 143<235.468 442.285> 637 143<235.468 507.035>
VStem: 91 143.081<144.468 635.532> 508.422 143.081<198.25 635.532>
LayerCount: 2
Fore
SplineSet
261.503 780 m 2
 481 780 l 2
 575.467 780 651.503 703.964 651.503 609.497 c 2
 651.503 170.503 l 2
 651.503 146.854 646.723 124.354 638.098 103.919 c 1
 693.297 49.4521 752.253 -8.69336 752.253 -8.69336 c 1
 721.338 -44.6875 l 2
 711.074 -57.249 696.15 -63.748 681.099 -63.748 c 0
 670.732 -63.748 660.307 -60.665 651.3 -54.3564 c 1
 651.22 -54.4785 l 1
 549.21 14.0967 l 1
 528.342 5.02832 505.28 0 481 0 c 2
 261.503 0 l 2
 167.036 0 91 76.0361 91 170.503 c 2
 91 609.497 l 2
 91 703.964 167.036 780 261.503 780 c 2
247 637 m 2
 239.85 637 234.081 631.23 234.081 624.08 c 2
 234.081 155.919 l 2
 234.081 148.77 239.85 143 247 143 c 2
 442.285 143 l 1
 451.23 173.749 475.799 195.475 508.422 198.25 c 1
 508.422 624.08 l 2
 508.422 631.23 502.652 637 495.503 637 c 2
 247 637 l 2
EndSplineSet
Validated: 1
EndChar

StartChar: R
Encoding: 82 82 42
Width: 650
VWidth: 0
Flags: W
HStem: 0 21G<97.5 240.5> 309.4 143<240.5 360.345> 635.78 144.22<240.5 431.526>
VStem: 97.5 143<0 309.4 452.4 635.78> 435.5 143<452.4 465.4 465.4 633.788>
LayerCount: 2
Fore
SplineSet
97.5 780 m 1
 422.5 780 l 2
 520 780 578.5 715 578.5 629.81 c 2
 578.5 452.4 l 2
 578.5 394.219 546.316 353.386 506.391 330.647 c 1
 630.68 30.6836 l 1
 567.694 -2.72168 l 2
 558.651 -6.48535 549.296 -8.26855 540.105 -8.26855 c 0
 512.126 -8.26855 485.672 8.26172 474.215 35.791 c 2
 360.345 309.4 l 1
 240.5 309.4 l 1
 240.5 0 l 1
 97.5 0 l 1
 97.5 780 l 1
240.5 635.78 m 1
 240.5 452.4 l 1
 422.175 452.4 l 2
 429.333 452.4 435.5 458.242 435.5 465.4 c 2
 435.5 622.455 l 2
 435.5 628.963 428.684 635.78 422.5 635.78 c 2
 240.5 635.78 l 1
EndSplineSet
Validated: 1
EndChar

StartChar: T
Encoding: 84 84 43
Width: 609
VWidth: 0
Flags: W
HStem: 0 21G<248 391> 637 143<47.8961 248 391 591.104>
VStem: 248 143<0 637>
LayerCount: 2
Fore
SplineSet
98.5 780 m 2
 540.5 780 l 2
 580.111 780 612 748.111 612 708.5 c 2
 612 637 l 1
 391 637 l 1
 391 0 l 1
 248 0 l 1
 248 637 l 1
 27 637 l 1
 27 708.5 l 2
 27 748.111 58.8896 780 98.5 780 c 2
EndSplineSet
Validated: 1
EndChar

StartChar: V
Encoding: 86 86 44
Width: 628
VWidth: 0
Flags: W
HStem: 0 21G<251.599 412.292>
LayerCount: 2
Fore
SplineSet
103.582 786.54 m 0
 104.06 786.551 104.535 786.555 105.012 786.555 c 0
 134.97 786.555 162.746 767.615 172.726 737.547 c 2
 332.098 257.359 l 1
 491.47 737.547 l 2
 501.449 767.616 529.239 786.568 559.2 786.568 c 0
 566.7 786.568 574.335 785.382 581.86 782.885 c 2
 589.133 780.447 l 1
 654.306 754.271 l 1
 405.7 0 l 1
 258.223 0 l 1
 29.6855 690.098 l 2
 27.1875 697.623 26 705.257 26 712.752 c 0
 26 742.704 44.9541 770.467 75.0234 780.447 c 2
 82.3359 782.885 l 2
 89.3838 785.225 96.5439 786.399 103.582 786.54 c 0
EndSplineSet
Validated: 1
EndChar

StartChar: A
Encoding: 65 65 45
Width: 612
VWidth: 0
Flags: W
HStem: -6.58984 21G<111.41 126.588 547.481 562.621> 168.31 143<267.61 407.197>
LayerCount: 2
Fore
SplineSet
331.919 780 m 2
 410.936 780 l 1
 639.45 89.9033 l 1
 640.646 82.5645 641.228 75.5996 641.228 69.0234 c 0
 641.228 23.0029 612.681 -3.96484 565.554 -6.54102 c 0
 564.378 -6.60449 563.205 -6.63672 562.037 -6.63672 c 0
 532.926 -6.63672 506.156 13.0869 496.41 42.4531 c 2
 454.647 168.31 l 1
 220.16 168.31 l 1
 178.397 42.4531 l 2
 168.546 12.7734 141.337 -6.58984 111.84 -6.58984 c 0
 110.979 -6.58984 110.117 -6.57422 109.253 -6.54102 c 0
 66.2217 -4.88672 32.5 25.8828 32.5 68.1504 c 0
 32.5 75.1152 33.416 82.3926 35.3564 89.9033 c 2
 237.913 701.431 l 2
 254.458 743.717 282.28 780 331.919 780 c 2
337.403 521.544 m 1
 267.61 311.31 l 1
 407.197 311.31 l 1
 337.403 521.544 l 1
EndSplineSet
Validated: 1
EndChar

StartChar: G
Encoding: 71 71 46
Width: 647
VWidth: 0
Flags: W
HStem: 0 143<222.468 429> 310.05 93.3555<350.604 429> 637 143<222.468 509.68>
VStem: 78 143.081<144.468 170.503 170.503 635.532> 429 143<143 310.05>
LayerCount: 2
Fore
SplineSet
248.503 780 m 2
 455 780 l 2
 523.945 778.724 559.035 703.463 559.035 640.427 c 0
 559.035 639.28 559.023 638.138 559 637 c 1
 234 637 l 2
 226.85 637 221.081 631.23 221.081 624.08 c 2
 221.081 155.919 l 2
 221.081 148.77 226.85 143 234 143 c 2
 429 143 l 1
 429 310.05 l 1
 390 310.05 l 2
 360.585 310.05 344.5 330.168 344.5 357.744 c 2
 344.5 403.405 l 1
 572 403.405 l 1
 572 331.905 l 1
 572 143 l 1
 572 71.5 l 2
 572 32.6689 546.225 0.283203 494.837 0.283203 c 0
 494.612 0.283203 494.388 0.283203 494.162 0.28418 c 1
 494.162 0.283203 494 0 494 0 c 1
 248.503 0 l 2
 154.036 0 78 76.0361 78 170.503 c 2
 78 609.497 l 2
 78 703.964 154.036 780 248.503 780 c 2
EndSplineSet
Validated: 1
EndChar

StartChar: U
Encoding: 85 85 47
Width: 694
VWidth: 0
Flags: W
HStem: 0 143.122<217.5 454.141>
VStem: 74.5 143<143.122 766.709> 454.141 143<143.122 760.723>
LayerCount: 2
Fore
SplineSet
146.487 785.688 m 0
 182.075 785.525 217.5 761.8 217.5 715 c 2
 217.5 156.122 l 2
 217.5 149.622 224.04 143.122 230.54 143.122 c 2
 441.1 143.122 l 2
 447.6 143.122 454.141 149.622 454.141 156.122 c 2
 454.141 708.5 l 2
 454.141 755.471 489.825 780.003 525.544 780.003 c 0
 526.249 780 l 2
 597.141 780 l 1
 597.141 130 l 2
 597.141 52 545.141 0 480.141 0 c 2
 191.5 0 l 2
 126.5 0 74.5 52 74.5 130 c 2
 74.5 715 l 2
 75.1475 762.286 110.654 785.688 146.119 785.688 c 0
 146.487 785.688 l 0
EndSplineSet
Validated: 1
EndChar

StartChar: S
Encoding: 83 83 48
Width: 621
VWidth: 0
Flags: W
HStem: -1.27246 132.6<91.0813 412.598> 329.428 143.294<192.4 415.995> 647.4 132.6<192.4 481.937>
VStem: 49.4004 143<472.727 647.4> 416 143<133.311 144.284 144.284 326.497>
LayerCount: 2
Fore
SplineSet
49.4004 663 m 6
 49.4004 725.594 101.665 780 192.4 780 c 6
 417.3 780 l 6
 480.353 778.894 521.3 738.106 521.3 647.4 c 5
 205.4 647.4 l 6
 198.031 647.4 192.4 641.196 192.4 634.303 c 6
 192.4 485.25 l 6
 192.4 479.461 198.558 472.722 204.793 472.722 c 4
 204.996 472.722 205.198 472.729 205.4 472.742 c 6
 416 472.742 l 6
 508.045 472.742 559 401.055 559 322.836 c 6
 559 141.728 l 6
 559 50.7275 507 -1.27246 403 -1.27246 c 6
 149.5 -1.27246 l 6
 82.085 -1.27246 58.5 53.291 58.5 131.327 c 5
 403 131.327 l 6
 409.896 131.327 416 137.391 416 144.284 c 6
 416 318.015 l 6
 416 324.219 409.435 329.428 403 329.428 c 6
 192.4 329.428 l 6
 112.556 329.428 49.4004 385.558 49.4004 462.214 c 6
 49.4004 663 l 6
EndSplineSet
Validated: 1
EndChar

StartChar: I
Encoding: 73 73 49
Width: 299
VWidth: 0
Flags: W
HStem: 0 21G<78 221>
VStem: 78 143<0 759.104>
LayerCount: 2
Fore
SplineSet
149.5 780 m 2
 221 780 l 1
 221 0 l 1
 78 0 l 1
 78 708.5 l 2
 78 748.111 109.89 780 149.5 780 c 2
EndSplineSet
Validated: 1
EndChar

StartChar: J
Encoding: 74 74 50
Width: 349
VWidth: 0
Flags: W
VStem: 109.832 142.68<-98.9873 -39 -39 764.304>
LayerCount: 2
Fore
SplineSet
181.012 785.2 m 0
 220.623 785.2 252.512 753.311 252.512 713.7 c 2
 252.512 -39 l 2
 252.512 -67.666 245.943 -91.5928 223.843 -113.043 c 2
 102.126 -224.682 l 2
 86.4209 -243.351 67.415 -250.972 50.0781 -250.972 c 0
 23.0029 -250.972 0 -232.383 0 -208.264 c 0
 0 -199.919 2.75293 -190.913 9.04297 -181.785 c 1
 91.499 -96.3164 l 1
 105.913 -74.6963 109.832 -66.2939 109.832 -44.6318 c 0
 109.832 -42.8496 109.806 -40.9766 109.756 -39 c 1
 109.513 -39 l 1
 109.513 713.7 l 2
 109.513 753.311 141.402 785.2 181.012 785.2 c 0
EndSplineSet
Validated: 1
EndChar

StartChar: L
Encoding: 76 76 51
Width: 640
VWidth: 0
Flags: W
HStem: 0 143<240.5 596.604>
VStem: 97.5 143<143 759.104>
LayerCount: 2
Fore
SplineSet
169 780 m 2
 240.5 780 l 1
 240.5 143 l 1
 546 143 l 2
 585.611 143 617.5 111.11 617.5 71.5 c 0
 617.5 31.8896 585.611 0 546 0 c 2
 97.5 0 l 1
 97.5 708.5 l 2
 97.5 748.111 129.39 780 169 780 c 2
EndSplineSet
Validated: 1
EndChar

StartChar: B
Encoding: 66 66 52
Width: 626
VWidth: 0
Flags: W
HStem: 0 143<217.5 438.473> 339.625 117.975<217.5 412.5> 651.381 127.563<217.5 409.098>
VStem: 74.5 143<143 339.625 457.6 651.381> 412.5 143<457.6 470.6 470.6 649.367> 438.825 143<143 156 156 339.554>
LayerCount: 2
Fore
SplineSet
74.5 778.944 m 1xf4
 399.5 778.944 l 2
 503.505 778.944 555.5 715 555.5 629.81 c 2
 555.5 452.4 l 2xf8
 555.5 428.09 529.5 390 490.5 390 c 1
 529.5 390 581.825 348.845 581.825 302.453 c 2
 581.825 143 l 2
 581.825 48.7314 497.325 0 432.325 0 c 2
 74.5 0 l 1
 74.5 778.944 l 1xf4
217.5 651.381 m 1
 217.5 457.6 l 1
 399.175 457.6 l 2
 406.333 457.6 412.5 463.442 412.5 470.6 c 2
 412.5 638.056 l 2
 412.5 644.563 405.684 651.381 399.5 651.381 c 2
 217.5 651.381 l 1
217.5 339.625 m 1
 217.5 143 l 1
 425.5 143 l 2
 432.658 143 438.825 148.842 438.825 156 c 2
 438.825 326.3 l 2xf4
 438.825 332.808 432.009 339.625 425.825 339.625 c 2
 217.5 339.625 l 1
EndSplineSet
Validated: 1
EndChar

StartChar: D
Encoding: 68 68 53
Width: 689
VWidth: 0
Flags: W
HStem: 0 143<240.5 461.148> 635.771 144.229<240.5 457.643>
VStem: 97.5 143<143 635.771> 461.5 143<143 156 156 633.497>
LayerCount: 2
Fore
SplineSet
455 0 m 2
 97.5 0 l 1
 97.5 780 l 1
 445.344 780 l 2
 533.666 780 604.5 708.771 604.5 629.801 c 2
 604.5 143 l 2
 604.5 48.7314 520 0 455 0 c 2
461.5 156 m 2
 461.5 622.446 l 2
 461.5 628.955 454.684 635.771 448.5 635.771 c 2
 240.5 635.771 l 1
 240.5 143 l 1
 448.175 143 l 2
 455.333 143 461.5 148.842 461.5 156 c 2
EndSplineSet
Validated: 1
EndChar

StartChar: W
Encoding: 87 87 54
Width: 932
VWidth: 0
Flags: W
HStem: 0 21G<204.689 399.903 517.641 715.02>
LayerCount: 2
Fore
SplineSet
115.231 785.46 m 0
 115.891 785.479 116.548 785.487 117.205 785.487 c 0
 149.719 785.487 178.996 763.26 186.69 730.17 c 2
 306.384 214.053 l 1
 375.578 512.914 l 2
 381.428 530.464 392.339 545.35 410.539 546 c 2
 509.191 546 l 2
 509.543 546.017 509.896 546.024 510.251 546.024 c 0
 523.671 546.024 539.209 534.119 543.642 515.121 c 2
 613.347 214.053 l 1
 734.123 730.219 l 2
 741.817 763.307 771.073 785.531 803.583 785.531 c 0
 808.98 785.531 814.47 784.919 819.963 783.642 c 2
 887.33 765.833 l 1
 710.399 0 l 1
 522.792 0 l 1
 485.959 143 l 2
 475.039 196.793 467.713 241.862 459.864 354.535 c 1
 450.765 240.135 446.114 196.551 434.133 143 c 2
 394.337 0 l 1
 209.33 0 l 1
 47.3877 697.792 l 2
 46.1113 703.279 45.5 708.76 45.5 714.151 c 0
 45.5 746.661 67.7559 775.896 100.851 783.592 c 0
 105.673 784.713 110.475 785.329 115.231 785.46 c 0
EndSplineSet
Validated: 1
EndChar

StartChar: Y
Encoding: 89 89 55
Width: 691
VWidth: 0
Flags: W
HStem: 0 21G<262.992 405.992>
VStem: 262.992 143<0 337.838>
LayerCount: 2
Fore
SplineSet
83.5928 792.105 m 0
 84.6025 792.113 l 0
 107.187 792.113 129.345 781.381 143.271 761.353 c 2
 334.777 485.915 l 1
 526.323 761.353 l 2
 540.246 781.377 562.412 792.093 584.983 792.093 c 0
 599.071 792.093 613.316 787.918 625.814 779.228 c 2
 679.516 739.512 l 1
 405.992 337.838 l 1
 405.992 0 l 1
 262.992 0 l 1
 262.992 338.69 l 1
 25.8643 679.697 l 2
 17.1738 692.194 13 706.446 13 720.541 c 0
 13 743.124 23.7148 765.305 43.7393 779.228 c 0
 55.9346 787.709 69.833 791.91 83.5928 792.105 c 0
EndSplineSet
Validated: 1
EndChar

StartChar: X
Encoding: 88 88 58
Width: 674
VWidth: 0
Flags: W
LayerCount: 2
Fore
SplineSet
97.042 787.76 m 0
 97.5684 787.761 l 0
 120.319 787.761 142.63 776.906 156.516 756.641 c 2
 334.86 496.397 l 1
 513.163 756.641 l 2
 527.05 776.906 549.36 787.761 572.111 787.761 c 0
 572.639 787.76 l 0
 586.397 787.658 600.279 783.603 612.532 775.205 c 0
 632.799 761.319 643.681 738.986 643.681 716.229 c 0
 643.681 702.298 639.602 688.206 631.098 675.797 c 2
 421.514 369.931 l 1
 647.889 38.3613 l 1
 590.699 -2.50684 l 2
 578.406 -10.9307 564.045 -15.0234 549.748 -15.0234 c 0
 526.777 -15.0234 503.971 -4.45898 490.17 15.6816 c 2
 334.82 242.369 l 1
 179.511 15.6816 l 2
 165.492 -4.77441 143.087 -15.8027 120.426 -15.8027 c 0
 106.89 -15.8027 93.2627 -11.8672 81.2793 -3.65625 c 2
 79.0039 -2.1123 l 2
 59.3174 11.377 48.792 33.1709 48.792 55.5508 c 0
 48.792 69.6016 52.9404 83.8828 61.5762 96.4844 c 2
 248.166 369.931 l 1
 38.582 675.797 l 2
 30.0791 688.206 25.999 702.298 25.999 716.229 c 0
 25.999 738.986 36.8818 761.319 57.1484 775.205 c 0
 69.4014 783.603 83.2822 787.658 97.042 787.76 c 0
EndSplineSet
Validated: 1
EndChar

StartChar: E
Encoding: 69 69 59
Width: 677
VWidth: 0
Flags: W
HStem: 0 143<240.5 595.309> 309.4 143<240.5 543.271> 637 143<240.5 573.204>
VStem: 97.5 143<143 309.4 452.4 637>
LayerCount: 2
Fore
SplineSet
97.5 780 m 1
 594.1 780 l 1
 594.1 708.5 l 2
 594.1 668.889 562.211 637 522.6 637 c 2
 240.5 637 l 1
 240.5 452.4 l 1
 494 452.4 l 2
 533.433 448.645 565.5 420.511 565.5 380.9 c 0
 565.5 341.289 533.333 314.083 494 309.4 c 2
 240.5 309.4 l 1
 240.5 143 l 1
 546 143 l 2
 585.433 139.244 617.5 111.11 617.5 71.5 c 0
 617.5 31.8896 585.559 2.04688 546 0 c 2
 97.5 0 l 1
 97.5 780 l 1
EndSplineSet
Validated: 1
EndChar

StartChar: F
Encoding: 70 70 60
Width: 565
VWidth: 0
Flags: W
HStem: 0 21G<97.5 240.5> 309.4 143<240.5 485.773> 637 143<240.5 573.204>
VStem: 97.5 143<0 309.4 452.4 637>
LayerCount: 2
Fore
SplineSet
97.5 780 m 1
 594.1 780 l 1
 594.1 708.5 l 2
 594.1 668.889 562.211 637 522.6 637 c 2
 240.5 637 l 1
 240.5 452.4 l 1
 435.169 452.4 l 2
 474.779 452.4 506.669 420.511 506.669 380.9 c 0
 506.669 341.289 474.779 309.4 435.169 309.4 c 2
 240.5 309.4 l 1
 240.5 0 l 1
 97.5 0 l 1
 97.5 780 l 1
EndSplineSet
Validated: 1
EndChar

StartChar: Z
Encoding: 90 90 61
Width: 579
VWidth: 0
Flags: W
HStem: 0 143<188.522 519.106> 637 143<67.74 357.522>
LayerCount: 2
Fore
SplineSet
150.096 780 m 2
 493.037 780 l 2
 525.537 780 545.037 754 545.037 728 c 2
 545.037 676 l 2
 545.037 654.697 536.501 639.354 526.522 624 c 2
 188.522 143 l 1
 557.722 143 l 1
 557.722 104 557.722 0 453.722 0 c 2
 74.2793 0 l 2
 58.0293 0 19.5215 26 19.5215 52 c 2
 19.5215 117 l 2
 19.5068 117.53 19.5 118.062 19.5 118.596 c 0
 19.5 142.303 33.4824 170.066 50.4463 194.795 c 2
 357.522 637 l 1
 19.8369 637 l 1
 19.8369 699.535 32.4189 780 150.096 780 c 2
EndSplineSet
Validated: 1
EndChar

StartChar: K
Encoding: 75 75 62
Width: 660
VWidth: 0
Flags: W
HStem: 0 21G<97.5 240.5>
VStem: 97.5 143<0 264.185 510.615 780>
LayerCount: 2
Fore
SplineSet
483.152 760.297 m 2
 498.396 774.49 515.746 781.398 532.991 781.398 c 0
 551.047 781.398 568.985 773.826 584.27 759.119 c 2
 633.702 707.829 l 1
 319.027 387.4 l 1
 637.69 111.597 l 2
 652.072 97.5439 659.29 79.0029 659.29 60.4453 c 0
 659.29 42.4453 652.5 24.4307 638.869 10.4814 c 0
 625.082 -3.62793 606.78 -10.3125 588.479 -10.3125 c 0
 570.03 -10.3125 551.581 -3.52148 537.753 9.30273 c 2
 240.5 264.185 l 1
 240.5 0 l 1
 97.5 0 l 1
 97.5 780 l 1
 240.5 780 l 1
 240.5 510.615 l 1
 483.152 760.297 l 2
EndSplineSet
Validated: 1
EndChar

StartChar: one
Encoding: 49 49 63
Width: 448
VWidth: 0
Flags: W
HStem: 0 21G<130 273>
VStem: 130 143<0 488.579>
LayerCount: 2
Fore
SplineSet
273 559 m 1
 273 0 l 1
 130 0 l 1
 130 403 l 2
 130 507 201.5 559 273 559 c 1
EndSplineSet
Validated: 1
EndChar

StartChar: two
Encoding: 50 50 64
Width: 650
VWidth: 0
Flags: W
HStem: -6.5 143<290.808 533.399> 412.141 132.6<138.177 412.941>
VStem: 413.077 143.255<314.772 336.604 336.604 402.105>
LayerCount: 2
Fore
SplineSet
202.814 544.74 m 2
 413.414 544.74 l 2
 502.012 544.74 552.429 492.83 556.21 432.128 c 1
 556.332 432.169 l 1
 556.332 431.355 l 1
 556.332 328.677 l 2
 556.332 289.677 529.049 257.242 504.82 242.349 c 2
 290.808 136.5 l 1
 572.015 136.5 l 1
 572.015 97.5 572.015 -6.5 468.015 -6.5 c 2
 132.776 -6.5 l 2
 98.7393 -6.5 78.0137 14.4414 78.0137 45.5 c 2
 78.0137 110.5 l 2
 78.0049 110.854 78 111.207 78 111.561 c 0
 78 135.17 99.2822 155.895 121.808 172.655 c 1
 396.469 317.028 l 2
 405.19 321.389 413.077 328.078 413.077 336.604 c 0
 413.077 337.064 413.055 337.529 413.008 338 c 2
 413.008 402.105 l 1
 411.631 407.663 406.659 412.141 400.414 412.141 c 2
 98.8135 412.141 l 1
 98.8135 502.848 139.762 543.635 202.814 544.74 c 2
EndSplineSet
Validated: 1
EndChar

StartChar: three
Encoding: 51 51 65
Width: 572
VWidth: 0
Flags: W
HStem: -241.19 143<91.4581 347.335> 116.391 111.8<140.348 334.21> 412.141 132.6<114.772 334.148>
VStem: 334.215 142.975<228.19 242.338 242.338 402.105> 351.009 143<-96.6981 115.1>
LayerCount: 2
Fore
SplineSet
179.409 544.74 m 2xf0
 334.271 544.74 l 2
 422.869 544.74 473.286 492.83 477.07 432.128 c 1
 477.189 432.169 l 1
 477.189 431.355 l 1
 477.189 210.154 l 2xf0
 477.189 184.778 461.509 171.6 444.245 162.54 c 1
 474.509 152.1 494.009 109.868 494.009 80.5996 c 2
 494.009 -85.1904 l 1
 494.009 -87.791 l 2
 494.009 -184.026 431.646 -241.19 343.209 -241.19 c 2
 143.009 -241.19 l 2
 54.5215 -241.19 52 -114.023 52 -99.5303 c 0
 52 -98.6553 52.0088 -98.1904 52.0088 -98.1904 c 1
 338.009 -98.1904 l 2
 344.347 -98.0283 350.847 -91.6904 351.009 -85.1904 c 2
 351.009 103.391 l 2xe8
 350.847 109.891 344.347 116.229 338.009 116.391 c 2
 180.604 116.391 l 2
 150.27 116.391 126.411 147.532 126.411 174.2 c 0
 126.411 200.868 155.015 228.19 182.314 228.19 c 2
 320.424 228.19 l 2
 327.689 228.19 334.215 234.176 334.215 242.338 c 2
 334.215 402.105 l 1
 332.835 407.663 327.865 412.141 321.62 412.141 c 2
 75.4092 412.141 l 1
 75.4092 502.848 116.356 543.635 179.409 544.74 c 2xf0
EndSplineSet
Validated: 1
EndChar

StartChar: four
Encoding: 52 52 66
Width: 605
VWidth: 0
Flags: W
HStem: 0 115.633<197.076 332.665 475.665 553.737>
VStem: 332.665 143<-240.648 0 115.633 304.123>
LayerCount: 2
Fore
SplineSet
404.165 546 m 0
 443.775 546 475.665 514.111 475.665 474.5 c 2
 475.665 114.034 l 1
 510.58 114.034 l 2
 542.164 114.034 567.617 88.6221 567.617 57.0371 c 2
 567.617 0 l 1
 475.665 0 l 1
 475.665 -240.648 l 1
 332.665 -240.648 l 1
 332.665 0 l 1
 104.632 0 l 2
 66.377 0 39 34.2891 39 70.6592 c 0
 39 84.0322 42.7012 97.6875 50.9248 110.022 c 2
 337.215 507.447 l 2
 341.033 512.803 345.419 517.503 350.215 521.503 c 0
 363.305 536.531 382.581 546 404.165 546 c 0
332.665 304.123 m 1
 197.076 115.633 l 1
 332.665 115.633 l 1
 332.665 304.123 l 1
EndSplineSet
Validated: 1
EndChar

StartChar: five
Encoding: 53 53 67
Width: 620
VWidth: 0
Flags: W
HStem: -246.302 132.6<110.581 415.197> 110.5 114.715<223.6 418.595> 413.4 132.6<223.6 496.237>
VStem: 80.5996 143<225.215 413.4> 418.6 143<-111.718 -100.746 -100.746 107.738>
LayerCount: 2
Fore
SplineSet
80.5996 429 m 0
 82.1641 491.575 132.865 546 223.6 546 c 2
 431.6 546 l 2
 494.652 544.894 535.6 504.106 535.6 413.4 c 1
 223.6 413.4 l 1
 223.6 358.038 223.6 280.576 223.6 225.215 c 1
 418.6 225.215 l 2
 510.646 225.215 561.6 153.527 561.6 75.3076 c 2
 561.6 -103.302 l 2
 561.6 -194.302 509.6 -246.302 405.6 -246.302 c 2
 169 -246.302 l 2
 101.585 -246.302 78 -191.739 78 -113.702 c 1
 405.6 -113.702 l 2
 412.495 -113.702 418.6 -107.641 418.6 -100.746 c 2
 418.6 99.0869 l 2
 418.6 105.291 412.035 110.5 405.6 110.5 c 2
 80.5996 110.5 l 1
 80.5996 218.833 80.5996 320.667 80.5996 429 c 0
EndSplineSet
Validated: 1
EndChar

StartChar: six
Encoding: 54 54 68
Width: 650
VWidth: 0
Flags: W
HStem: -7.7998 150.8<222.468 440.532> 393.046 140.4<221.081 440.532> 655.386 131.969<224.674 508.881>
VStem: 78 143.081<145.221 393.046 531.252 651.536> 441.919 143.081<145.221 392.039>
LayerCount: 2
Fore
SplineSet
228.8 787.354 m 2
 455 787.354 l 2
 543.488 787.354 546.009 669.996 546.009 656.622 c 0
 546.009 655.813 546 655.386 546 655.386 c 1
 234 655.386 l 2
 227.662 655.224 221.162 648.886 221 642.386 c 2
 221 531.252 l 1
 229.949 532.691 239.135 533.446 248.503 533.446 c 2
 414.497 533.446 l 2
 508.964 533.446 585 477.765 585 383.297 c 2
 585 162.703 l 2
 585 68.2363 508.964 -7.7998 414.497 -7.7998 c 2
 248.503 -7.7998 l 2
 154.036 -7.7998 78 68.2363 78 162.703 c 2
 78 633.954 l 2
 78 730.189 140.362 787.354 228.8 787.354 c 2
234 393.046 m 2
 226.85 393.046 221.081 387.276 221.081 380.127 c 2
 221.081 155.919 l 2
 221.081 148.77 226.85 143 234 143 c 2
 429 143 l 2
 436.15 143 441.919 148.77 441.919 155.919 c 2
 441.919 380.127 l 2
 441.919 387.276 436.15 393.046 429 393.046 c 2
 234 393.046 l 2
EndSplineSet
Validated: 1
EndChar

StartChar: nine
Encoding: 57 57 69
Width: 650
VWidth: 0
Flags: W
HStem: -246.595 143.001<143.449 425.326> 10.8066 140.399<209.468 428.915> 400.806 143<209.468 427.532>
VStem: 65 143.081<155.236 399.338> 428.919 143.081<-102.1 13 151.206 164.125 164.125 399.338>
LayerCount: 2
Fore
SplineSet
421.2 -246.595 m 2
 195 -246.595 l 2
 106.513 -246.595 103.991 -119.426 103.991 -104.934 c 0
 103.991 -104.059 104 -103.594 104 -103.594 c 1
 416 -103.594 l 2
 422.338 -103.432 428.838 -97.0938 429 -90.5938 c 2
 429 13 l 1
 420.051 11.5605 410.865 10.8066 401.497 10.8066 c 2
 235.503 10.8066 l 2
 141.036 10.8066 65 73.8428 65 168.31 c 2
 65 373.303 l 2
 65 467.77 141.036 543.806 235.503 543.806 c 2
 401.497 543.806 l 2
 495.964 543.806 572 467.77 572 373.303 c 2
 572 -93.1934 l 2
 572 -189.43 509.638 -246.595 421.2 -246.595 c 2
221 151.206 m 2
 416 151.206 l 2
 423.15 151.206 428.919 156.975 428.919 164.125 c 2
 428.919 387.888 l 2
 428.919 395.037 423.15 400.806 416 400.806 c 2
 221 400.806 l 2
 213.85 400.806 208.081 395.037 208.081 387.888 c 2
 208.081 164.125 l 2
 208.081 156.975 213.85 151.206 221 151.206 c 2
EndSplineSet
Validated: 1
EndChar

StartChar: zero
Encoding: 48 48 70
Width: 611
VWidth: 0
Flags: W
HStem: 0 143<221.081 388.613> 403 143<222.468 390>
VStem: 78 143.081<143 401.532> 390 143.08<144.468 403>
LayerCount: 2
Fore
SplineSet
248.503 546 m 2
 455 546 l 2
 481 546 533.08 507 533.08 455 c 2
 533.08 170.503 l 2
 533.08 76.0361 457.045 0 362.578 0 c 2
 182 0 l 2
 143 0 78 52 78 104 c 2
 78 375.497 l 2
 78 469.964 154.036 546 248.503 546 c 2
234 403 m 2
 226.85 403 221.081 397.23 221.081 390.081 c 2
 221.081 155.919 l 2
 221.081 148.77 226.85 143 234 143 c 2
 377.081 143 l 2
 384.23 143 390 148.77 390 155.919 c 2
 390 390.081 l 2
 390 397.23 384.23 403 377.081 403 c 2
 234 403 l 2
EndSplineSet
Validated: 1
EndChar

StartChar: seven
Encoding: 55 55 71
Width: 652
VWidth: 0
Flags: W
HStem: 403 143<99.9736 418.723>
LayerCount: 2
Fore
SplineSet
152.1 546 m 2
 516.1 546 l 2
 555.711 546 587.6 514.111 587.6 474.5 c 2
 587.6 442.325 l 2
 587.6 424.775 585 412.345 579.15 399.345 c 2
 377.481 -205.61 l 2
 368.381 -228.36 342.561 -241.8 321.1 -241.8 c 2
 194.228 -241.8 l 1
 418.723 403 l 1
 65 403 l 1
 65 461.637 80.0537 546 152.1 546 c 2
EndSplineSet
Validated: 1
EndChar

StartChar: eight
Encoding: 56 56 72
Width: 638
VWidth: 0
Flags: W
HStem: -7.7998 150.8<219.867 419.448> 358.8 96.2002<239.28 400.035> 641.103 140.4<240.668 398.648>
VStem: 75.4004 143.08<145.221 357.276> 96.2002 143.08<456.11 637.074> 400.035 143.08<456.11 637.074> 420.835 143.08<145.221 357.276>
LayerCount: 2
Fore
SplineSet
266.703 781.503 m 2xe8
 372.612 781.503 l 2
 467.079 781.503 543.115 718.467 543.115 624 c 2
 543.115 513.703 l 2xec
 543.115 474.457 529.97 438.416 507.853 409.662 c 1
 541.981 389.651 563.915 349.739 563.915 310.497 c 2
 563.915 162.703 l 2
 563.915 68.2363 487.88 -7.7998 393.412 -7.7998 c 2
 245.902 -7.7998 l 2
 151.436 -7.7998 75.4004 68.2363 75.4004 162.703 c 2
 75.4004 310.497 l 2xf2
 75.4004 349.739 97.334 389.651 131.463 409.662 c 1
 109.346 438.416 96.2002 474.457 96.2002 513.703 c 2
 96.2002 624 l 2
 96.2002 718.467 172.235 781.503 266.703 781.503 c 2xe8
387.115 641.103 m 2
 252.2 641.103 l 2
 245.05 641.103 239.28 635.335 239.28 628.185 c 2
 239.28 467.919 l 2
 239.28 460.77 245.05 455 252.2 455 c 2
 387.115 455 l 2
 394.266 455 400.035 460.77 400.035 467.919 c 2
 400.035 628.185 l 2
 400.035 635.335 394.266 641.103 387.115 641.103 c 2
407.915 358.8 m 2
 231.4 358.8 l 2
 224.25 358.8 218.48 353.03 218.48 345.881 c 2
 218.48 155.919 l 2
 218.48 148.77 224.25 143 231.4 143 c 2
 407.915 143 l 2
 415.065 143 420.835 148.77 420.835 155.919 c 2
 420.835 345.881 l 2xf2
 420.835 353.03 415.065 358.8 407.915 358.8 c 2
EndSplineSet
Validated: 1
EndChar

StartChar: acute
Encoding: 180 180 73
Width: 435
VWidth: 0
Flags: W
HStem: 583.15 208.512
VStem: 62.4004 309.211
LayerCount: 2
Fore
SplineSet
363.944 763.984 m 0
 369.1 755.053 371.611 745.063 371.611 735.237 c 0
 371.611 716.271 362.26 697.913 344.515 688.94 c 2
 119.713 586.347 l 2
 115.231 584.185 110.459 583.15 105.741 583.15 c 0
 94.585 583.15 83.7314 588.937 77.7549 599.287 c 2
 62.4004 624.413 l 1
 288.379 784.254 l 2
 297.076 789.275 306.576 791.662 315.952 791.662 c 0
 335.081 791.662 353.699 781.729 363.944 763.984 c 0
EndSplineSet
Validated: 1
EndChar

StartChar: grave
Encoding: 96 96 74
Width: 435
VWidth: 0
Flags: W
HStem: 583.15 208.512
VStem: 62.4004 309.211
LayerCount: 2
Fore
SplineSet
70.0684 763.984 m 0
 80.3125 781.729 98.9287 791.662 118.06 791.662 c 0
 127.436 791.662 136.936 789.275 145.633 784.254 c 2
 371.611 624.413 l 1
 356.257 599.287 l 2
 350.28 588.937 339.428 583.15 328.271 583.15 c 0
 323.553 583.15 318.781 584.185 314.3 586.347 c 2
 89.4971 688.94 l 2
 71.7529 697.911 62.4004 716.271 62.4004 735.235 c 0
 62.4004 745.062 64.9121 755.053 70.0684 763.984 c 0
EndSplineSet
Validated: 1
EndChar

StartChar: dieresis
Encoding: 168 168 75
Width: 466
VWidth: 0
Flags: W
HStem: 634.048 145.545<70.7224 173.621 294.322 397.221>
VStem: 49.4004 145.542<655.37 758.27> 273 145.543<655.37 758.27>
LayerCount: 2
Fore
SplineSet
194.942 706.82 m 0
 194.942 666.65 162.342 634.048 122.172 634.048 c 0
 82.002 634.048 49.4004 666.65 49.4004 706.82 c 0
 49.4004 746.99 82.002 779.593 122.172 779.593 c 0
 162.342 779.593 194.942 746.99 194.942 706.82 c 0
418.543 706.82 m 0
 418.543 666.65 385.941 634.048 345.771 634.048 c 0
 305.602 634.048 273 666.65 273 706.82 c 0
 273 746.99 305.602 779.593 345.771 779.593 c 0
 385.941 779.593 418.543 746.99 418.543 706.82 c 0
EndSplineSet
Validated: 1
EndChar

StartChar: dotlessi
Encoding: 305 305 76
Width: 312
VWidth: 0
Flags: W
HStem: 0 21G<85.6113 228.61>
VStem: 85.6113 142.999<0 525.104>
LayerCount: 2
Fore
SplineSet
157.11 546 m 0
 196.722 546 228.61 514.111 228.61 474.5 c 2
 228.61 0 l 1
 85.6113 0 l 1
 85.6113 474.5 l 2
 85.6113 514.111 117.5 546 157.11 546 c 0
EndSplineSet
Validated: 1
EndChar

StartChar: caron
Encoding: 711 711 77
Width: 479
VWidth: 0
Flags: W
HStem: 593.655 208.322
LayerCount: 2
Fore
SplineSet
53.0566 785.931 m 6
 60.1709 795.708 70.4424 801.978 81.5547 801.978 c 4
 85.96 801.978 90.4971 800.992 95.0215 798.85 c 5
 95.0625 798.931 l 5
 240.378 708.785 l 5
 385.734 798.931 l 5
 385.775 798.85 l 5
 390.263 801.015 395.039 802.052 399.759 802.052 c 4
 410.898 802.052 421.727 796.277 427.7 785.931 c 6
 443.056 760.785 l 5
 269.1 600.965 l 5
 259.622 596.17 249.78 593.655 239.947 593.655 c 4
 230.411 593.655 220.881 596.021 211.697 600.965 c 5
 37.7002 760.785 l 5
 53.0566 785.931 l 6
EndSplineSet
Validated: 1
EndChar

StartChar: circumflex
Encoding: 710 710 78
Width: 479
VWidth: 0
Flags: W
HStem: 587.155 208.396
LayerCount: 2
Fore
SplineSet
53.0566 603.276 m 2
 37.7002 628.423 l 1
 211.697 788.242 l 1
 220.881 793.188 230.409 795.552 239.947 795.552 c 0
 249.78 795.552 259.622 793.036 269.1 788.242 c 1
 443.056 628.423 l 1
 427.7 603.276 l 2
 421.727 592.93 410.898 587.155 399.759 587.155 c 0
 395.039 587.155 390.263 588.192 385.775 590.357 c 1
 385.734 590.276 l 1
 240.378 680.423 l 1
 95.0625 590.276 l 1
 95.0215 590.357 l 1
 90.4971 588.216 85.96 587.23 81.5547 587.23 c 0
 70.4424 587.23 60.1709 593.501 53.0566 603.276 c 2
EndSplineSet
Validated: 1
EndChar

StartChar: ring
Encoding: 730 730 79
Width: 421
VWidth: 0
Flags: W
HStem: 591.54 56.6729<170.816 250.943> 748.646 56.6719<170.816 250.943>
VStem: 104 56.6719<658.375 738.501> 261.105 56.6699<658.375 738.501>
LayerCount: 2
Fore
SplineSet
210.873 805.317 m 0
 269.872 805.317 317.775 757.442 317.775 698.444 c 0
 317.775 639.445 269.872 591.54 210.873 591.54 c 0
 151.874 591.54 104 639.445 104 698.444 c 0
 104 757.442 151.874 805.317 210.873 805.317 c 0
210.874 748.646 m 0
 183.158 748.646 160.672 726.159 160.672 698.443 c 0
 160.672 670.726 183.158 648.213 210.874 648.213 c 0
 238.59 648.213 261.105 670.726 261.105 698.443 c 0
 261.105 726.159 238.59 748.646 210.874 748.646 c 0
EndSplineSet
Validated: 1
EndChar

StartChar: breve
Encoding: 728 728 80
Width: 547
VWidth: 0
Flags: W
HStem: 598.04 95.1416<214.026 334.529>
LayerCount: 2
Fore
SplineSet
124.354 785.77 m 0
 135.955 785.719 148.206 782.058 156.203 773.825 c 0
 187.698 741.4 213.942 693.184 274.26 693.182 c 0
 334.576 693.182 360.788 741.405 392.275 773.825 c 0
 400.327 782.113 412.707 785.766 424.381 785.766 c 0
 434.533 785.766 444.148 783.006 449.922 778.131 c 2
 470.478 760.785 l 1
 421.499 677.127 367.305 598.04 274.26 598.04 c 0
 183.053 598.04 121.69 676.431 78 760.785 c 1
 98.5566 778.131 l 2
 104.33 783.006 113.966 785.77 124.117 785.77 c 0
 124.354 785.77 l 0
EndSplineSet
Validated: 1
EndChar

StartChar: periodcentered
Encoding: 183 183 82
Width: 300
VWidth: 0
Flags: W
HStem: 331.386 145.544<99.3221 202.222>
VStem: 78 145.544<352.708 455.608>
LayerCount: 2
Fore
SplineSet
223.544 404.158 m 4
 223.544 363.988 190.941 331.386 150.772 331.386 c 4
 110.602 331.386 78 363.988 78 404.158 c 4
 78 444.328 110.602 476.93 150.772 476.93 c 4
 190.941 476.93 223.544 444.328 223.544 404.158 c 4
EndSplineSet
Validated: 1
EndChar

StartChar: parenright
Encoding: 41 41 83
Width: 418
VWidth: 0
Flags: W
VStem: 161.829 140.487<-98.9933 -39 -39 581.506 581.506 641.498>
LayerCount: 2
Fore
SplineSet
101.141 793.447 m 0
 102.066 793.454 l 0
 119.402 793.454 138.41 785.832 154.116 767.162 c 2
 275.829 655.525 l 2
 297.929 634.075 302.316 610.172 302.316 581.506 c 2
 302.316 -39 l 2
 302.316 -67.666 297.929 -91.6094 275.829 -113.06 c 2
 154.116 -224.697 l 2
 138.411 -243.365 119.407 -250.985 102.073 -250.985 c 0
 75.001 -250.985 52.001 -232.398 52.001 -208.278 c 0
 52.001 -199.933 54.7539 -190.926 61.0439 -181.797 c 1
 143.514 -96.3223 l 1
 157.923 -74.707 161.829 -66.2988 161.829 -44.6504 c 0
 161.829 -42.8623 161.803 -40.9834 161.754 -39 c 1
 161.51 -39 l 1
 161.51 581.506 l 1
 161.754 581.506 l 1
 161.803 583.489 161.829 585.368 161.829 587.156 c 0
 161.829 608.806 157.923 617.214 143.514 638.828 c 1
 61.0439 724.263 l 1
 54.7539 733.393 52 742.4 52 750.746 c 0
 52 774.591 74.4727 793.028 101.141 793.447 c 0
EndSplineSet
Validated: 1
EndChar

StartChar: parenleft
Encoding: 40 40 84
Width: 418
VWidth: 0
Flags: W
VStem: 117 140.485<-98.9933 -39 -39 581.506 581.506 641.498>
LayerCount: 2
Fore
SplineSet
318.175 793.447 m 0
 344.845 793.027 367.316 774.591 367.316 750.746 c 0
 367.316 742.4 364.562 733.391 358.272 724.263 c 1
 275.803 638.828 l 1
 261.394 617.213 257.485 608.806 257.485 587.156 c 0
 257.485 585.368 257.513 583.489 257.562 581.506 c 1
 257.806 581.506 l 1
 257.806 -39 l 1
 257.562 -39 l 1
 257.513 -40.9834 257.485 -42.8623 257.485 -44.6504 c 0
 257.485 -66.2988 261.394 -74.707 275.803 -96.3223 c 1
 358.272 -181.797 l 1
 364.562 -190.926 367.315 -199.934 367.315 -208.278 c 0
 367.315 -232.398 344.315 -250.985 317.243 -250.985 c 0
 299.908 -250.985 280.905 -243.365 265.2 -224.697 c 2
 143.487 -113.06 l 2
 121.388 -91.6094 117 -67.666 117 -39 c 2
 117 581.506 l 2
 117 610.172 121.388 634.075 143.487 655.525 c 2
 265.2 767.162 l 2
 280.906 785.832 299.912 793.447 317.249 793.447 c 0
 318.175 793.447 l 0
EndSplineSet
Validated: 1
EndChar

StartChar: uni0237
Encoding: 567 567 85
Width: 310
VWidth: 0
Flags: W
VStem: 83.832 142.68<-98.9873 -39 -39 525.104>
LayerCount: 2
Fore
SplineSet
155.012 546 m 4
 194.623 546 226.512 514.111 226.512 474.5 c 6
 226.512 -39 l 6
 226.512 -67.666 219.943 -91.5928 197.843 -113.043 c 6
 76.126 -224.682 l 6
 60.4209 -243.351 41.415 -250.972 24.0781 -250.972 c 4
 -2.99707 -250.972 -26 -232.383 -26 -208.264 c 4
 -26 -199.919 -23.2471 -190.913 -16.957 -181.785 c 5
 65.499 -96.3164 l 5
 79.9131 -74.6963 83.832 -66.2939 83.832 -44.6318 c 4
 83.832 -42.8496 83.8057 -40.9766 83.7559 -39 c 5
 83.5127 -39 l 5
 83.5127 474.5 l 6
 83.5127 514.111 115.401 546 155.012 546 c 4
EndSplineSet
Validated: 1
EndChar

StartChar: tcaron
Encoding: 357 357 194
Width: 527
VWidth: 0
Flags: W
HStem: 0 21G<156 299> 403 143<59.8961 156 299 369.104>
VStem: 156 143<0 403 546 759.104> 430.3 159.637<650.113 752.836> 487.41 102.526<575.378 626.723>
LayerCount: 2
Fore
SplineSet
227.5 780 m 0xe0
 267.111 780 299 748.111 299 708.5 c 2
 299 546 l 1
 318.5 546 l 2
 358.111 546 390 514.111 390 474.5 c 2
 390 403 l 1
 299 403 l 1
 299 0 l 1
 156 0 l 1
 156 403 l 1
 110.5 403 l 2
 70.8896 403 39 434.889 39 474.5 c 0
 39 514.111 70.8896 546 110.5 546 c 2
 156 546 l 1
 156 708.5 l 2
 156 748.111 187.889 780 227.5 780 c 0xe0
511.367 780 m 0
 554.729 780 589.937 744.793 589.937 701.431 c 2xf0
 589.937 646.912 l 2xe8
 589.937 620.259 581.826 596.139 571.411 579.759 c 2
 503.892 483.641 l 2
 492.57 470.182 478.87 464.688 466.378 464.688 c 0
 446.87 464.688 430.3 478.081 430.3 495.464 c 0xf0
 430.3 501.48 432.285 507.974 436.82 514.556 c 2
 480.614 599.178 l 1
 485.956 606.324 487.41 612.68 487.41 619.479 c 0xe8
 487.41 621.824 487.237 624.221 486.992 626.723 c 1
 455.554 636.987 432.839 666.572 432.839 701.431 c 0
 432.839 744.793 468.005 780 511.367 780 c 0
EndSplineSet
Validated: 1
EndChar

StartChar: uni0202
Encoding: 514 514 239
Width: 612
VWidth: 0
Flags: W
HStem: -6.58984 21<111.41 126.588 547.481 562.621> 168.31 143<267.61 407.197> 950.587 95.1416<285.214 405.716>
LayerCount: 2
Fore
SplineSet
195.541 858 m 4
 195.304 858 l 4
 185.153 858 175.519 860.764 169.743 865.639 c 6
 149.188 882.984 l 5
 192.878 967.339 254.241 1045.73 345.447 1045.73 c 4
 438.492 1045.73 492.687 966.643 541.666 882.984 c 5
 521.11 865.639 l 6
 515.337 860.764 505.721 858.004 495.569 858.004 c 4
 483.896 858.004 471.516 861.655 463.463 869.944 c 4
 431.976 902.363 405.764 950.587 345.447 950.587 c 4
 285.13 950.586 258.886 902.369 227.391 869.944 c 4
 219.395 861.711 207.144 858.051 195.541 858 c 4
EndSplineSet
Refer: 45 65 N 1 0 0 1 0 0 3
Validated: 1
EndChar

StartChar: uni0203
Encoding: 515 515 240
Width: 640
VWidth: 0
Flags: W
HStem: -7.19922 147.114<168.9 256.89> 218.661 130.017<168.9 280.924> 403 143<156.349 387.191> 716.587 95.1426<245.187 365.69>
VStem: 25.9004 143<139.915 218.661> 389.9 143<0 48.9531 139.915 218.661 305.419 400.291>
LayerCount: 2
Fore
SplineSet
155.514 624 m 4
 155.277 624 l 4
 145.127 624 135.491 626.764 129.717 631.639 c 6
 109.161 648.984 l 5
 152.852 733.339 214.214 811.729 305.421 811.729 c 4
 398.466 811.729 452.66 732.643 501.639 648.984 c 5
 481.083 631.639 l 6
 475.31 626.764 465.694 624.004 455.542 624.004 c 4
 443.868 624.004 431.488 627.655 423.437 635.944 c 4
 391.949 668.363 365.737 716.587 305.421 716.587 c 4
 245.104 716.586 218.859 668.369 187.364 635.944 c 4
 179.367 627.712 167.116 624.051 155.514 624 c 4
EndSplineSet
Refer: 3 97 N 1 0 0 1 0 0 3
Validated: 1
EndChar

StartChar: uni0206
Encoding: 518 518 241
Width: 677
VWidth: 0
Flags: W
HStem: 0 143<240.5 595.309> 309.4 143<240.5 543.271> 637 143<240.5 573.204> 950.587 95.1416<285.587 406.089>
VStem: 97.5 143<143 309.4 452.4 637>
LayerCount: 2
Fore
SplineSet
195.914 858 m 0
 195.678 858 l 0
 185.527 858 175.892 860.764 170.116 865.639 c 2
 149.562 882.984 l 1
 193.252 967.339 254.614 1045.73 345.82 1045.73 c 0
 438.865 1045.73 493.061 966.643 542.039 882.984 c 1
 521.483 865.639 l 2
 515.71 860.764 506.094 858.004 495.942 858.004 c 0
 484.269 858.004 471.889 861.655 463.836 869.944 c 0
 432.349 902.363 406.137 950.587 345.82 950.587 c 0
 285.503 950.586 259.259 902.369 227.764 869.944 c 0
 219.768 861.711 207.517 858.051 195.914 858 c 0
EndSplineSet
Refer: 59 69 N 1 0 0 1 0 0 3
Validated: 1
EndChar

StartChar: uni0207
Encoding: 519 519 242
Width: 664
VWidth: 0
Flags: W
HStem: -10.4004 143<193.352 470.662> 224.94 98.7598<191.081 439.503> 410.8 135.2<192.468 438.035> 716.587 95.1426<255.039 375.541>
VStem: 48 143.081<133.462 171.6 171.6 224.94 323.7 409.946> 439.503 143<323.7 409.946>
LayerCount: 2
Fore
SplineSet
165.365 624 m 0
 165.13 624 l 0
 154.979 624 145.343 626.764 139.569 631.639 c 2
 119.013 648.984 l 1
 162.703 733.339 224.066 811.729 315.272 811.729 c 0
 408.317 811.729 462.512 732.643 511.49 648.984 c 1
 490.935 631.639 l 2
 485.161 626.764 475.545 624.004 465.394 624.004 c 0
 453.72 624.004 441.34 627.655 433.287 635.944 c 0
 401.8 668.363 375.588 716.587 315.272 716.587 c 0
 254.955 716.586 228.71 668.369 197.215 635.944 c 0
 189.219 627.712 176.968 624.051 165.365 624 c 0
EndSplineSet
Refer: 11 101 N 1 0 0 1 0 0 3
Validated: 1
EndChar

StartChar: uni020A
Encoding: 522 522 243
Width: 299
VWidth: 0
Flags: W
HStem: 0 21<78 221> 950.587 95.1416<125.037 245.54>
VStem: 78 143<0 759.104>
LayerCount: 2
Fore
SplineSet
35.3643 858 m 0
 35.1279 858 l 0
 24.9766 858 15.3408 860.764 9.56738 865.639 c 2
 -10.9893 882.984 l 1
 32.7021 967.339 94.0645 1045.73 185.271 1045.73 c 0
 278.315 1045.73 332.51 966.643 381.489 882.984 c 1
 360.934 865.639 l 2
 355.16 860.764 345.544 858.004 335.393 858.004 c 0
 323.718 858.004 311.338 861.655 303.286 869.944 c 0
 271.799 902.363 245.587 950.587 185.271 950.587 c 0
 124.954 950.586 98.709 902.369 67.2139 869.944 c 0
 59.2178 861.711 46.9658 858.051 35.3643 858 c 0
EndSplineSet
Refer: 49 73 N 1 0 0 1 0 0 3
Validated: 1
EndChar

StartChar: uni020B
Encoding: 523 523 244
Width: 312
VWidth: 0
Flags: W
HStem: 0 21<85.6113 228.61> 716.587 95.1426<95.7873 216.29>
VStem: 85.6113 142.999<0 525.104>
LayerCount: 2
Fore
SplineSet
6.11426 624 m 0
 5.87793 624 l 0
 -4.27344 624 -13.9092 626.764 -19.6826 631.639 c 2
 -40.2393 648.984 l 1
 3.45215 733.339 64.8145 811.729 156.021 811.729 c 0
 249.065 811.729 303.26 732.643 352.239 648.984 c 1
 331.684 631.639 l 2
 325.91 626.764 316.294 624.004 306.143 624.004 c 0
 294.468 624.004 282.088 627.655 274.036 635.944 c 0
 242.549 668.363 216.337 716.587 156.021 716.587 c 0
 95.7041 716.586 69.459 668.369 37.9639 635.944 c 0
 29.9678 627.712 17.7158 624.051 6.11426 624 c 0
EndSplineSet
Refer: 76 305 N 1 0 0 1 0 0 3
Validated: 1
EndChar

StartChar: uni020E
Encoding: 526 526 245
Width: 717
VWidth: 0
Flags: W
HStem: 0 143<226.968 498.535> 637 143<226.968 498.535> 950.587 95.1416<302.539 423.041>
VStem: 82.5 143.081<144.468 635.532> 499.922 143.081<144.468 635.532>
LayerCount: 2
Fore
SplineSet
212.865 858 m 0
 212.63 858 l 0
 202.479 858 192.843 860.764 187.069 865.639 c 2
 166.513 882.984 l 1
 210.203 967.339 271.566 1045.73 362.772 1045.73 c 0
 455.817 1045.73 510.012 966.643 558.99 882.984 c 1
 538.435 865.639 l 2
 532.661 860.764 523.045 858.004 512.894 858.004 c 0
 501.22 858.004 488.84 861.655 480.787 869.944 c 0
 449.3 902.363 423.088 950.587 362.772 950.587 c 0
 302.455 950.586 276.21 902.369 244.715 869.944 c 0
 236.719 861.711 224.468 858.051 212.865 858 c 0
EndSplineSet
Refer: 38 79 N 1 0 0 1 0 0 3
Validated: 1
EndChar

StartChar: uni020F
Encoding: 527 527 246
Width: 715
VWidth: 0
Flags: W
HStem: -9.09961 143<184.468 454.532> 404.3 141.7<184.468 454.532> 716.587 95.1426<259.287 379.79>
VStem: 40 143.081<135.367 402.8> 455.919 143.081<135.367 402.8>
LayerCount: 2
Fore
SplineSet
169.614 624 m 0
 169.377 624 l 0
 159.227 624 149.591 626.764 143.816 631.639 c 2
 123.261 648.984 l 1
 166.951 733.339 228.314 811.729 319.521 811.729 c 0
 412.565 811.729 466.76 732.643 515.739 648.984 c 1
 495.184 631.639 l 2
 489.41 626.764 479.794 624.004 469.643 624.004 c 0
 457.968 624.004 445.588 627.655 437.536 635.944 c 0
 406.049 668.363 379.837 716.587 319.521 716.587 c 0
 259.203 716.586 232.959 668.369 201.464 635.944 c 0
 193.468 627.712 181.217 624.051 169.614 624 c 0
EndSplineSet
Refer: 8 111 N 1 0 0 1 0 0 3
Validated: 1
EndChar

StartChar: uni0212
Encoding: 530 530 247
Width: 650
VWidth: 0
Flags: W
HStem: 0 21<97.5 240.5> 309.4 143<240.5 360.345> 635.78 144.22<240.5 431.526> 950.587 95.1416<264.787 385.29>
VStem: 97.5 143<0 309.4 452.4 635.78> 435.5 143<452.4 465.4 465.4 633.788>
LayerCount: 2
Fore
SplineSet
175.114 858 m 4
 174.877 858 l 4
 164.727 858 155.091 860.764 149.316 865.639 c 6
 128.761 882.984 l 5
 172.451 967.339 233.814 1045.73 325.021 1045.73 c 4
 418.065 1045.73 472.26 966.643 521.239 882.984 c 5
 500.684 865.639 l 6
 494.91 860.764 485.294 858.004 475.143 858.004 c 4
 463.468 858.004 451.088 861.655 443.036 869.944 c 4
 411.549 902.363 385.337 950.587 325.021 950.587 c 4
 264.703 950.586 238.459 902.369 206.964 869.944 c 4
 198.968 861.711 186.717 858.051 175.114 858 c 4
EndSplineSet
Refer: 42 82 N 1 0 0 1 0 0 3
Validated: 1
EndChar

StartChar: uni0213
Encoding: 531 531 248
Width: 554
VWidth: 0
Flags: W
HStem: 0 21<78 221> 403 145.65<293.901 476.317> 719.238 95.1416<258.319 378.821>
VStem: 78 143<0 403 505.7 546>
LayerCount: 2
Fore
SplineSet
168.646 626.65 m 0
 168.41 626.65 l 0
 158.258 626.65 148.622 629.414 142.85 634.289 c 2
 122.293 651.636 l 1
 165.984 735.99 227.347 814.38 318.552 814.38 c 0
 411.597 814.38 465.793 735.293 514.771 651.636 c 1
 494.215 634.289 l 2
 488.442 629.414 478.825 626.654 468.675 626.654 c 0
 456.999 626.654 444.621 630.308 436.567 638.595 c 0
 405.081 671.015 378.869 719.238 318.552 719.238 c 0
 258.236 719.236 231.99 671.02 200.496 638.595 c 0
 192.499 630.363 180.248 626.701 168.646 626.65 c 0
EndSplineSet
Refer: 6 114 N 1 0 0 1 0 0 3
Validated: 1
EndChar

StartChar: uni0216
Encoding: 534 534 249
Width: 694
VWidth: 0
Flags: W
HStem: 0 143.122<217.5 454.141> 956.276 95.1416<86.0903 206.593>
VStem: 74.5 143<143.122 766.709> 454.141 143<143.122 760.723>
LayerCount: 2
Fore
SplineSet
-3.58301 863.688 m 0
 -3.81836 863.688 l 0
 -13.9697 863.688 -23.6055 866.452 -29.3799 871.327 c 2
 -49.9355 888.674 l 1
 -6.24512 973.027 55.1182 1051.42 146.323 1051.42 c 0
 239.368 1051.42 293.564 972.331 342.543 888.674 c 1
 321.986 871.327 l 2
 316.214 866.452 306.597 863.692 296.446 863.692 c 0
 284.771 863.692 272.393 867.345 264.339 875.633 c 0
 232.853 908.053 206.64 956.276 146.323 956.276 c 0
 86.0068 956.274 59.7617 908.058 28.2676 875.633 c 0
 20.2705 867.398 8.01953 863.739 -3.58301 863.688 c 0
EndSplineSet
Refer: 47 85 N 1 0 0 1 0 0 3
Validated: 1
EndChar

StartChar: uni0217
Encoding: 535 535 250
Width: 663
VWidth: 0
Flags: W
HStem: -2.00781 145.07<221 341.769> 716.587 95.1426<271.287 391.79>
VStem: 78 143<143.062 546> 442 143<0 41.0723 143.062 156 156 546>
LayerCount: 2
Fore
SplineSet
181.614 624 m 0
 181.377 624 l 0
 171.227 624 161.591 626.764 155.816 631.639 c 2
 135.261 648.984 l 1
 178.951 733.339 240.314 811.729 331.521 811.729 c 0
 424.565 811.729 478.76 732.643 527.739 648.984 c 1
 507.184 631.639 l 2
 501.41 626.764 491.794 624.004 481.643 624.004 c 0
 469.968 624.004 457.588 627.655 449.536 635.944 c 0
 418.049 668.363 391.837 716.587 331.521 716.587 c 0
 271.203 716.586 244.959 668.369 213.464 635.944 c 0
 205.468 627.712 193.217 624.051 181.614 624 c 0
EndSplineSet
Refer: 4 117 N 1 0 0 1 0 0 3
Validated: 1
EndChar

StartChar: cedilla
Encoding: 184 184 411
Width: 475
VWidth: 0
Flags: W
HStem: -226.047 77.3525<178.58 271.766> -97.6602 69.4385<208.966 271.688>
VStem: 138.791 70.1748<-30.0879 21.6865> 272.459 70.2158<-148.151 -98.3987>
LayerCount: 2
Fore
SplineSet
256.631 -226.047 m 0
 217.753 -226.047 138.791 -186.313 138.791 -186.313 c 2
 134.761 -185.233 133.688 -182.148 133.984 -179.855 c 2
 133.984 -148.694 l 1
 266.199 -148.694 l 2
 269.708 -148.694 272.459 -145.862 272.459 -142.354 c 2
 272.459 -104 l 2
 272.459 -100.491 270.92 -97.6602 266.12 -97.6602 c 2
 209.338 -97.6602 l 2
 177.439 -97.6602 138.791 -72.8086 138.791 -30.0879 c 2
 138.791 21.6865 l 1
 208.966 21.6865 l 1
 208.966 -30.0879 l 1
 209.498 -30.0879 256.551 -28.2217 256.551 -28.2217 c 2
 312.868 -28.2217 342.675 -64.7979 342.675 -111.157 c 2
 342.675 -135.197 l 2
 342.675 -181.556 312.947 -226.047 256.631 -226.047 c 0
EndSplineSet
Validated: 1
EndChar

StartChar: Ccedilla
Encoding: 199 199 412
Width: 629
VWidth: 0
Flags: W
HStem: -239.476 77.3525<323.953 417.139> -111.088 69.4385<354.34 417.062> -0 143<241.968 284.164 354.34 542.627> 637 143<241.968 529.172>
VStem: 97.5 143.081<144.468 635.532> 284.164 70.1758<-43.5156 0> 417.833 70.2158<-161.579 -111.827>
LayerCount: 2
Fore
SplineSet
402.004 -239.476 m 0
 363.126 -239.476 284.164 -199.741 284.164 -199.741 c 2
 280.135 -198.661 279.062 -195.576 279.358 -193.284 c 2
 279.358 -162.123 l 1
 411.573 -162.123 l 2
 415.082 -162.123 417.833 -159.29 417.833 -155.781 c 2
 417.833 -117.428 l 2
 417.833 -113.919 416.294 -111.088 411.494 -111.088 c 2
 354.712 -111.088 l 2
 322.813 -111.088 284.164 -86.2363 284.164 -43.5156 c 2
 284.164 -0 l 1
 268.003 0 l 2
 173.536 0 97.5 76.0361 97.5 170.503 c 2
 97.5 609.497 l 2
 97.5 703.964 173.536 780 268.003 780 c 2
 474.5 780 l 2
 543.445 778.724 578.5 703.463 578.5 640.427 c 0
 578.5 639.28 578.5 638.138 578.5 637 c 1
 253.5 637 l 2
 246.35 637 240.581 631.23 240.581 624.08 c 2
 240.581 155.919 l 2
 240.581 148.77 246.35 143 253.5 143 c 2
 591.5 143 l 1
 591.5 78 552.5 0 487.5 0 c 2
 354.34 -0 l 1
 354.34 -43.5156 l 1
 354.871 -43.5156 401.925 -41.6494 401.925 -41.6494 c 2
 458.242 -41.6494 488.049 -78.2256 488.049 -124.586 c 2
 488.049 -148.625 l 2
 488.049 -194.983 458.321 -239.476 402.004 -239.476 c 0
EndSplineSet
Validated: 1
EndChar

StartChar: ccedilla
Encoding: 231 231 413
Width: 587
VWidth: 0
Flags: W
HStem: -248.575 77.3525<286.192 379.379> -120.188 69.4375<316.577 379.302> -9.09961 141.497<221.537 246.403 316.577 502.984> 403 141.497<222.653 502.984>
VStem: 78 143.081<134.431 401.495> 246.403 70.1738<-52.6152 -9.09961> 380.072 70.2148<-170.679 -120.927>
LayerCount: 2
Fore
SplineSet
364.243 -248.575 m 0
 325.365 -248.575 246.403 -208.841 246.403 -208.841 c 2
 242.372 -207.761 241.301 -204.676 241.598 -202.384 c 2
 241.598 -171.223 l 1
 373.812 -171.223 l 2
 377.321 -171.223 380.072 -168.391 380.072 -164.882 c 2
 380.072 -126.527 l 2
 380.072 -123.019 378.532 -120.188 373.731 -120.188 c 2
 316.95 -120.188 l 2
 285.053 -120.188 246.403 -95.3369 246.403 -52.6152 c 2
 246.403 -9.00391 l 1
 136.236 -5.98828 78 67.3994 78 159.9 c 2
 78 375.497 l 2
 78 469.964 138.738 544.497 253.5 544.497 c 2
 442.081 544.497 l 2
 551.28 544.497 556.4 403 556.4 403 c 1
 234 403 l 2
 226.85 403 221.081 397.23 221.081 390.081 c 2
 221.081 145.315 l 2
 221.081 138.165 226.85 132.397 234 132.397 c 2
 556.4 132.397 l 1
 556.4 132.397 551.28 -9.09961 442.081 -9.09961 c 2
 316.577 -9.09961 l 1
 316.577 -52.6152 l 1
 317.11 -52.6152 364.164 -50.75 364.164 -50.75 c 2
 420.481 -50.75 450.287 -87.3262 450.287 -133.686 c 2
 450.287 -157.725 l 2
 450.287 -204.083 420.561 -248.575 364.243 -248.575 c 0
EndSplineSet
Validated: 1
EndChar

StartChar: numbersign
Encoding: 35 35 414
Width: 705
VWidth: 0
Flags: W
HStem: 0 21G<98.5977 191.841 413.821 451.841> 223.6 101.4<45.8409 130.354 286.883 390.354 546.883 631.376> 444.6 101.4<75.2939 159.808 316.336 419.808 576.336 660.85>
VStem: 195.232 143.615<657.767 710.287 710.287 753.374>
LayerCount: 2
Fore
SplineSet
276.035 780 m 0
 312.464 780 338.848 753.697 338.848 719.436 c 0
 338.848 716.443 338.646 713.391 338.232 710.287 c 2
 316.336 546 l 1
 433.336 546 l 1
 455.232 710.287 l 2
 460.381 748.9 496.425 780 536.035 780 c 2
 607.696 780 l 1
 576.336 546 l 1
 629.636 546 l 2
 655.469 546 674.19 527.34 674.19 503.044 c 0
 674.19 500.923 674.047 498.758 673.754 496.56 c 2
 673.389 494.04 l 2
 669.738 466.661 644.195 444.6 616.107 444.6 c 2
 562.808 444.6 l 1
 546.883 325 l 1
 600.183 325 l 2
 626.013 325 644.697 306.345 644.697 282.055 c 0
 644.697 279.931 644.556 277.762 644.261 275.56 c 2
 643.936 273.04 l 2
 640.284 245.661 614.742 223.6 586.653 223.6 c 2
 533.354 223.6 l 1
 512.838 69.7129 l 2
 507.69 31.0996 471.646 0 432.035 0 c 0
 395.606 0 369.225 26.3037 369.225 60.5645 c 0
 369.225 63.5566 369.426 66.6094 369.838 69.7129 c 2
 390.354 223.6 l 1
 273.354 223.6 l 1
 252.838 69.7129 l 2
 247.69 31.0996 211.646 0 172.035 0 c 2
 98.5977 0 l 1
 130.354 223.6 l 1
 77.0547 223.6 l 2
 51.2217 223.6 32.5 242.26 32.5 266.556 c 0
 32.5 268.678 32.6426 270.842 32.9355 273.04 c 2
 33.2607 275.56 l 2
 36.9121 302.939 62.4941 325 90.582 325 c 2
 143.883 325 l 1
 159.808 444.6 l 1
 106.507 444.6 l 2
 80.6748 444.6 61.9531 463.26 61.9531 487.556 c 0
 61.9531 489.678 62.0957 491.842 62.3887 494.04 c 2
 62.7539 496.56 l 2
 66.4053 523.939 91.9473 546 120.035 546 c 2
 173.336 546 l 1
 195.232 710.287 l 2
 200.381 748.9 236.425 780 276.035 780 c 0
302.808 444.6 m 1
 286.883 325 l 1
 403.883 325 l 1
 419.808 444.6 l 1
 302.808 444.6 l 1
EndSplineSet
Validated: 1
EndChar

StartChar: dollar
Encoding: 36 36 415
Width: 621
VWidth: 0
Flags: W
HStem: -1.25977 132.6<110.581 270.4 351 415.197> 309.928 143.772<195 418.6> 647.4 132.6<195 270.4 351 496.237>
VStem: 52 143<453.705 647.4> 270.4 80.5996<-97.0043 -1.25977 780 871.804> 418.6 143<133.324 144.3 144.3 307.009>
LayerCount: 2
Fore
SplineSet
351 876.2 m 1
 351 780 l 1
 431.6 780 l 2
 494.652 778.894 535.6 738.106 535.6 647.4 c 1
 208 647.4 l 2
 200.632 647.4 195 641.213 195 634.319 c 2
 195 466.213 l 2
 195 460.237 201.5 453.7 208 453.7 c 2
 418.6 453.7 l 2
 510.646 453.7 561.6 381.565 561.6 303.348 c 2
 561.6 141.74 l 2
 561.6 50.7402 509.6 -1.25977 405.6 -1.25977 c 2
 351 -1.25977 l 1
 351 -61.0996 l 2
 351 -83.4258 333.026 -101.4 310.7 -101.4 c 2
 270.4 -101.4 l 1
 270.4 -1.25977 l 1
 169 -1.25977 l 2
 101.585 -1.25977 78 53.3037 78 131.34 c 1
 405.6 131.34 l 2
 412.495 131.34 418.6 137.405 418.6 144.3 c 2
 418.6 298.513 l 2
 418.6 304.718 412.035 309.928 405.6 309.928 c 2
 195 309.928 l 2
 115.155 309.928 52 366.077 52 442.73 c 2
 52 663 l 2
 53.5645 725.575 104.266 780 195 780 c 2
 270.4 780 l 1
 270.4 835.9 l 2
 270.4 858.227 288.374 876.2 310.7 876.2 c 2
 351 876.2 l 1
EndSplineSet
Validated: 1
EndChar

StartChar: Euro
Encoding: 8364 8364 416
Width: 631
VWidth: 0
Flags: W
HStem: 0 143<242.969 543.927> 249.6 101.4<35.5495 98.7998 241.8 423.713> 418.6 101.4<35.5495 98.7998 241.8 423.713> 637 143<242.969 530.48>
VStem: 98.7998 143<144.17 249.6 351 418.6 520 635.83>
LayerCount: 2
Fore
SplineSet
269.1 780 m 2
 475.8 780 l 2
 544.745 778.724 579.835 703.463 579.835 640.427 c 0
 579.835 639.28 579.823 638.138 579.8 637 c 1
 254.8 637 l 2
 247 637 241.8 631.8 241.8 624 c 2
 241.8 520 l 1
 382.2 520 l 2
 410.8 520 432.9 497.9 432.9 469.3 c 2
 432.9 418.6 l 1
 241.8 418.6 l 1
 241.8 351 l 1
 432.9 351 l 1
 432.9 300.3 l 2
 432.9 271.7 410.8 249.6 382.2 249.6 c 2
 241.8 249.6 l 1
 241.8 156 l 2
 241.8 148.2 247 143 254.8 143 c 2
 592.8 143 l 1
 592.8 78 553.8 0 488.8 0 c 2
 269.1 0 l 2
 174.2 0 98.7998 75.4004 98.7998 170.3 c 2
 98.7998 249.6 l 1
 76.7002 249.6 l 2
 49.4004 249.6 26 271.7 26 300.3 c 2
 26 351 l 1
 98.7998 351 l 1
 98.7998 418.6 l 1
 26 418.6 l 1
 26 469.3 l 2
 26 497.9 49.4004 520 76.7002 520 c 2
 98.7998 520 l 1
 98.7998 609.7 l 2
 98.7998 704.6 174.2 780 269.1 780 c 2
EndSplineSet
Validated: 1
EndChar

StartChar: percent
Encoding: 37 37 417
Width: 829
VWidth: 0
Flags: W
HStem: 0 105.548<565.433 684.316> 297.453 105.547<565.433 684.316> 377 105.547<145.631 264.513> 674.453 105.547<145.631 264.513>
VStem: 39 105.606<483.631 673.369> 265.538 105.606<483.631 673.369> 458.803 105.606<106.631 296.369> 685.341 105.606<106.631 296.369>
LayerCount: 2
Fore
SplineSet
584.649 403 m 2xdf
 665.1 403 l 2
 734.825 403 790.947 346.878 790.947 277.152 c 2
 790.947 125.848 l 2
 790.947 56.1221 734.825 0 665.1 0 c 2
 584.649 0 l 2
 514.925 0 458.803 56.1221 458.803 125.848 c 2
 458.803 277.152 l 2
 458.803 346.878 514.925 403 584.649 403 c 2xdf
573.944 297.453 m 2
 568.668 297.453 564.409 293.194 564.409 287.918 c 2
 564.409 115.083 l 2
 564.409 109.806 568.668 105.548 573.944 105.548 c 2
 675.805 105.548 l 2
 681.082 105.548 685.341 109.806 685.341 115.083 c 2
 685.341 287.918 l 2
 685.341 293.194 681.082 297.453 675.805 297.453 c 2
 573.944 297.453 l 2
164.848 780 m 2
 245.297 780 l 2
 315.022 780 371.145 723.878 371.145 654.152 c 2
 371.145 502.848 l 2
 371.145 433.122 315.022 377 245.297 377 c 2
 164.848 377 l 2xbf
 95.1221 377 39 433.122 39 502.848 c 2
 39 654.152 l 2
 39 723.878 95.1221 780 164.848 780 c 2
154.143 674.453 m 2
 148.865 674.453 144.606 670.194 144.606 664.918 c 2
 144.606 492.082 l 2
 144.606 486.806 148.865 482.547 154.143 482.547 c 2
 256.003 482.547 l 2
 261.279 482.547 265.538 486.806 265.538 492.082 c 2
 265.538 664.918 l 2
 265.538 670.194 261.279 674.453 256.003 674.453 c 2
 154.143 674.453 l 2
584.094 771.539 m 2
 594.868 791.187 599.452 799.544 607.888 799.544 c 0
 614.135 799.544 622.493 794.96 637.042 786.982 c 1
 656.688 776.208 665.046 771.624 665.046 763.188 c 0
 665.046 756.941 660.463 748.583 652.483 734.033 c 2
 252.382 4.48242 l 2
 241.607 -15.1631 237.023 -23.5215 228.588 -23.5215 c 0
 222.342 -23.5215 213.982 -18.9375 199.433 -10.959 c 1
 179.787 -0.18457 171.429 4.40039 171.429 12.835 c 0
 171.429 19.082 176.012 27.4404 183.991 41.9893 c 2
 584.094 771.539 l 2
EndSplineSet
Validated: 1
EndChar

StartChar: ampersand
Encoding: 38 38 418
Width: 676
VWidth: 0
Flags: W
HStem: 0 143<222.706 460.358> 224.9 98.7998<418.159 461.744 604.825 656.396> 390 111.881<237.777 344.844> 650 132.6<237.778 500.381>
VStem: 78 143<143.003 169 169 389.452> 94.9004 142.877<502.539 533 533 650> 461.744 143.081<144.468 224.9>
LayerCount: 2
Fore
SplineSet
237.737 782.6 m 2xf6
 435.744 782.6 l 2
 498.796 781.494 539.744 740.706 539.744 650 c 1
 250.372 650 l 2
 244.126 650 239.156 648.854 237.777 643.297 c 1
 237.777 516.02 l 2xf6
 237.777 507.855 244.326 501.881 251.59 501.881 c 2
 302.169 501.881 l 2
 329.47 501.881 357.744 475.168 357.744 448.5 c 2
 357.744 390 l 1
 234 390 l 2
 227.662 389.838 221.162 383.581 221 377.081 c 2
 221 154.415 l 2
 221 147.266 227.095 143 234.244 143 c 2
 448.825 143 l 2
 455.975 143 461.744 148.77 461.744 155.919 c 2
 461.744 224.9 l 1
 459.145 224.9 l 2
 431.776 224.9 409.744 246.933 409.744 274.3 c 0
 409.744 301.668 431.776 323.7 459.145 323.7 c 2
 676.244 323.7 l 1
 676.244 279.48 672.327 232.735 607.345 224.9 c 2
 604.825 224.9 l 1
 604.825 170.503 l 2
 604.825 76.0361 528.789 0 434.322 0 c 2
 248.747 0 l 2
 154.28 0 78 74.5332 78 169 c 2
 78 365.311 l 2xfa
 78 422.5 136.744 442 162.744 448.5 c 1
 136.744 455 94.9004 481 94.9004 533 c 2
 94.8184 672.547 l 1
 94.8184 673.359 l 1
 94.9404 673.319 l 1
 98.7227 734.021 149.14 782.6 237.737 782.6 c 2xf6
EndSplineSet
Validated: 1
EndChar

StartChar: OE
Encoding: 338 338 419
Width: 872
VWidth: 0
Flags: W
HStem: 0 143<241.968 387.603 530.603 774.912> 309.4 143<530.603 722.873> 637 143<241.968 387.603 530.603 752.807>
VStem: 97.5 143.081<144.468 170.503 170.503 635.532> 387.603 143<143 309.4 452.4 637>
LayerCount: 2
Fore
SplineSet
268.003 780 m 2
 773.703 780 l 1
 773.703 708.5 l 2
 773.703 668.889 741.813 637 702.203 637 c 2
 530.603 637 l 1
 530.603 452.4 l 1
 673.603 452.4 l 2
 713.036 448.645 745.103 420.511 745.103 380.9 c 0
 745.103 341.289 712.936 314.083 673.603 309.4 c 2
 530.603 309.4 l 1
 530.603 143 l 1
 725.603 143 l 2
 765.036 139.244 797.103 111.11 797.103 71.5 c 0
 797.103 31.8896 765.162 2.04688 725.603 0 c 0
 573.07 0 420.536 0 268.003 0 c 0
 173.536 0 97.5 76.0361 97.5 170.503 c 2
 97.5 609.497 l 2
 97.5 703.964 173.536 780 268.003 780 c 2
253.5 637 m 2
 246.35 637 240.581 631.23 240.581 624.08 c 2
 240.581 155.919 l 2
 240.581 148.77 246.35 143 253.5 143 c 2
 387.603 143 l 1
 387.603 290.926 387.603 489.074 387.603 637 c 1
 253.5 637 l 2
EndSplineSet
Validated: 1
EndChar

StartChar: oe
Encoding: 339 339 420
Width: 890
VWidth: 0
Flags: W
HStem: -1.21875 142.999<222.468 366.3 511.698 726.9> 224.94 91.4072<510.816 695.742> 403.447 142.553<222.468 367.003 512.678 694.273>
VStem: 78 143.081<144.468 170.503 170.503 401.532> 367.207 143.527<143.163 224.94 316.348 402.996> 695.742 143<316.348 401.532>
LayerCount: 2
Fore
SplineSet
248.503 546 m 2
 339.785 546 l 2
 376.863 546 411.074 534.297 438.992 514.353 c 1
 466.908 534.299 501.159 546 538.237 546 c 2
 668.237 546 l 2
 762.705 546 838.742 469.964 838.742 375.497 c 2
 838.742 224.94 l 1
 510.816 224.94 l 1
 510.816 169.081 l 2
 510.816 153.48 521.135 141.78 536.734 141.78 c 2
 631.838 141.78 l 1
 787.838 141.78 l 1
 787.838 50.7812 735.838 -1.21875 631.838 -1.21875 c 2
 536.734 -1.21875 l 2
 497.332 -1.21875 463.549 10.5664 436.757 30.1035 c 1
 409.256 11.1094 375.886 0 339.785 0 c 2
 248.503 0 l 2
 154.037 0 78 76.0361 78 170.503 c 2
 78 375.497 l 2
 78 469.964 154.037 546 248.503 546 c 2
536.734 403.447 m 2
 523.734 403.447 510.734 390.447 510.734 377.447 c 2
 510.734 316.348 l 1
 695.742 316.348 l 1
 695.742 377.447 l 2
 695.742 390.447 682.742 403.447 669.742 403.447 c 2
 536.734 403.447 l 2
234 403 m 2
 226.85 403 221.081 397.23 221.081 390.081 c 2
 221.081 155.919 l 2
 221.081 148.77 226.85 143 234 143 c 2
 354.288 143 l 2
 361.438 143 367.207 148.77 367.207 155.919 c 2
 367.207 390.081 l 2
 367.207 397.23 361.438 403 354.288 403 c 2
 234 403 l 2
EndSplineSet
Validated: 1
EndChar

StartChar: ae
Encoding: 230 230 421
Width: 865
VWidth: 0
Flags: W
HStem: -7.7998 140.399<519.532 708.967> -7.21582 147.128<198.9 273.203> 218.645 130.04<198.905 291.454> 224.94 98.7598<516.83 674.253> 403 143<186.349 372.495> 410.8 135.2<518.605 672.785>
VStem: 55.9004 143<139.912 218.645> 373.75 143.08<139.948 218.645 323.7 402.675> 674.253 143<323.7 409.946>
LayerCount: 2
Fore
SplineSet
237.9 546 m 2x6b80
 308.75 546 l 2x6b80
 361.128 546 405.036 533.305 438.831 509.681 c 1
 467.807 532.442 504.379 546 544.253 546 c 2
 646.75 546 l 2
 741.217 546 817.253 469.964 817.253 375.497 c 2
 817.253 224.94 l 1
 516.83 224.94 l 1
 516.83 159.9 l 2
 516.83 144.3 527.15 132.6 542.75 132.6 c 2
 610.35 132.6 l 1
 766.35 132.6 l 1
 766.35 41.5996 719.55 -7.7998 615.55 -7.7998 c 2
 547.95 -7.7998 l 2x9780
 438.472 -7.7998 422.975 20.5332 373.75 48.9531 c 1
 230.75 0 l 2
 211.505 -4.91406 193.984 -7.21582 178.123 -7.21582 c 0
 93.2725 -7.21582 55.9004 58.6631 55.9004 143 c 2
 55.9004 236.6 l 2
 55.9004 311.318 99.9482 348.685 175.373 348.685 c 0
 192.483 348.685 211.208 346.762 231.4 342.915 c 2
 373.75 305.419 l 1
 373.75 375.497 l 1
 373.75 390 l 2
 373.588 396.5 367.088 402.838 360.75 403 c 2
 146.9 403 l 1
 146.9 403 146.891 403.464 146.891 404.34 c 0
 146.891 418.831 149.411 546 237.9 546 c 2x6b80
542.75 410.8 m 2x1780
 529.75 410.8 516.75 397.8 516.75 384.8 c 2
 516.75 338 l 1
 516.75 323.7 l 1
 674.253 323.7 l 1
 674.253 384.8 l 2
 674.253 397.8 661.253 410.8 648.253 410.8 c 2
 542.75 410.8 l 2x1780
212.225 218.645 m 2x6380
 205.067 218.645 198.9 212.801 198.9 205.645 c 2
 198.9 153.237 l 2
 198.9 146.729 205.716 139.912 211.9 139.912 c 2
 373.75 139.912 l 1
 373.75 171.6 l 1
 373.75 218.645 l 1
 212.225 218.645 l 2x6380
EndSplineSet
Validated: 1
EndChar

StartChar: AE
Encoding: 198 198 422
Width: 1058
VWidth: 0
Flags: W
HStem: 0 143<639.077 993.887> 168.31 143<319.277 496.077> 309.4 143<639.077 941.848> 637 143<639.077 971.781>
VStem: 496.077 143<143 168.31 452.4 612.625>
LayerCount: 2
Fore
SplineSet
496.077 780 m 1xd8
 496.077 780 517.443 780 519.558 780 c 0
 526.678 780 572.688 780 598.573 780 c 0
 727.681 780 992.678 780 992.678 780 c 1
 992.678 708.5 l 2
 992.678 668.889 960.787 637 921.178 637 c 2
 639.077 637 l 1
 639.077 452.4 l 1
 892.577 452.4 l 2
 932.011 448.645 964.077 420.511 964.077 380.9 c 0
 964.077 341.289 931.91 314.083 892.577 309.4 c 2
 639.077 309.4 l 1xb8
 639.077 143 l 1
 944.577 143 l 2
 984.011 139.244 1016.08 111.11 1016.08 71.5 c 0
 1016.08 31.8896 984.135 2.04688 944.577 0 c 2
 496.077 0 l 1
 496.077 0 496.077 111.347 496.077 168.31 c 1
 241.317 168.31 l 1
 165.836 42.4531 l 2
 147.129 8.91406 114.118 -6.00098 82.4473 -6.00098 c 0
 40.0205 -6.00098 -0 20.7666 -0 65.3887 c 0
 -0 78.9316 3.68652 94.1201 12.1113 110.703 c 2
 370.708 701.431 l 2
 394.423 737.401 449.571 769.001 496.077 777.645 c 1
 496.077 777.657 496.077 780 496.077 780 c 1xd8
496.077 612.625 m 1
 319.277 311.31 l 1
 496.077 311.31 l 1xd8
 496.077 437.369 l 2
 496.077 523.705 496.077 553.552 496.077 612.625 c 1
EndSplineSet
Validated: 1
EndChar

StartChar: asciitilde
Encoding: 126 126 423
Width: 622
VWidth: 0
Flags: W
HStem: 131.585 141.062<373.948 500.16> 222.612 141.185<123.699 249.911>
LayerCount: 2
Fore
SplineSet
182.723 363.797 m 0x40
 184.527 363.807 186.366 363.764 188.206 363.675 c 0
 280.774 351.437 349.128 290.286 440.528 272.715 c 0
 441.233 272.67 441.954 272.647 442.691 272.647 c 0
 469.471 272.647 517.246 302.389 543.025 320.369 c 0
 548.813 324.406 554.992 326.182 561.176 326.182 c 0
 585.98 326.182 610.861 297.615 610.861 271.782 c 0
 610.861 261.938 607.248 252.491 598.641 245.172 c 1
 598.926 244.806 l 1
 563.64 204.185 497.128 131.73 441.138 131.463 c 0
 439.331 131.453 437.491 131.495 435.653 131.585 c 0x80
 343.084 143.823 274.731 204.974 183.331 222.544 c 0
 182.627 222.59 181.906 222.612 181.168 222.612 c 0
 154.388 222.612 106.612 192.869 80.835 174.891 c 0
 75.0469 170.854 68.8672 169.078 62.6836 169.078 c 0
 37.8799 169.078 13 197.645 13 223.477 c 0
 13 233.321 16.6123 242.769 25.2188 250.088 c 1
 24.9346 250.453 l 1
 60.2188 291.074 126.732 363.529 182.723 363.797 c 0x40
EndSplineSet
Validated: 1
EndChar

StartChar: germandbls
Encoding: 223 223 427
Width: 643
VWidth: 0
Flags: W
HStem: 0 143<312.526 441.973> 339.625 117.975<221 415.996> 651.381 127.563<222.332 412.598>
VStem: 78 143<-211.7 339.625 457.6 648.869> 416 143<457.6 470.6 470.6 649.367> 442.325 143<143.004 156 156 339.554>
LayerCount: 2
Fore
SplineSet
78 637 m 2xf4
 78 722.811 141.662 778.944 235.299 778.944 c 2
 403 778.944 l 2
 507.005 778.944 559 715 559 629.81 c 2
 559 452.4 l 2xf8
 559 428.09 533 390 494 390 c 1
 533 390 585.325 348.845 585.325 302.453 c 2
 585.325 143 l 2
 585.325 48.7314 500.825 0 435.825 0 c 2
 354.415 0 l 2
 304.535 0 276.251 76.3633 276.251 135.354 c 0
 276.251 137.939 276.306 140.489 276.415 143 c 1
 429 143 l 2
 436.158 143 442.325 148.842 442.325 156 c 2
 442.325 326.3 l 2
 442.325 332.808 435.509 339.625 429.325 339.625 c 2
 221 339.625 l 1
 221 -169 l 2
 221 -207.905 185.426 -227.214 149.763 -227.214 c 0
 113.925 -227.214 78 -207.714 78 -169 c 2
 78 637 l 2xf4
221 635.7 m 2
 221 457.6 l 1
 402.675 457.6 l 2
 409.833 457.6 416 463.442 416 470.6 c 2
 416 638.056 l 2
 416 644.563 409.184 651.381 403 651.381 c 2
 234.162 651.381 l 2
 226.005 651.381 220.996 644.532 220.996 636.104 c 0
 221 635.7 l 2
EndSplineSet
Validated: 1
EndChar
